<?xml version="1.0" encoding="utf-8"?>
<!-- Generator: Adobe Illustrator 24.0.0, SVG Export Plug-In . SVG Version: 6.00 Build 0)  -->
<svg version="1.1" id="Layer_1" xmlns="http://www.w3.org/2000/svg" xmlns:xlink="http://www.w3.org/1999/xlink" x="0px" y="0px"
	 viewBox="0 0 440 440" style="enable-background:new 0 0 440 440;" xml:space="preserve">
<style type="text/css">
	.st0{fill:#FFFFFF;}
</style>
<path class="st0" d="M384,0H56C25.1,0,0,25.1,0,56v328c0,30.9,25.1,56,56,56h328c30.9,0,56-25.1,56-56V56C440,25.1,414.9,0,384,0z
	 M148.7,353.7H86.3V175.4h62.4V353.7z M117.5,148.7c-17.2,0-31.2-14-31.2-31.2s14-31.2,31.2-31.2s31.2,14,31.2,31.2c0,0,0,0,0,0
	C148.7,134.7,134.7,148.7,117.5,148.7L117.5,148.7z M353.7,353.7h-53.5v-86.9c0-20.7-2.3-47.4-30.7-47.4
	c-28.8,0-33.2,22.6-33.2,45.9v88.4h-52V175.4H234v24.1h0.8c7.4-14,25.5-24.1,52.4-24.1c56.1,0,66.5,32.2,66.5,80.3V353.7z"/>
</svg>
