<?xml version="1.0" encoding="utf-8"?>
<!-- Generator: Adobe Illustrator 24.0.0, SVG Export Plug-In . SVG Version: 6.00 Build 0)  -->
<svg version="1.1" id="Layer_1" xmlns="http://www.w3.org/2000/svg" xmlns:xlink="http://www.w3.org/1999/xlink" x="0px" y="0px"
	 viewBox="0 0 75.8 75.8" style="enable-background:new 0 0 75.8 75.8;" xml:space="preserve">
<style type="text/css">
	.st0{display:none;fill:#0C1B30;}
	.st1{display:none;}
	.st2{display:inline;}
	.st3{fill:#4FF353;}
	.st4{display:inline;fill:#4FF353;}
	.st5{display:none;fill:#4FF353;}
	.st6{fill:none;}
	.st7{fill:#7D8A9B;}
</style>
<rect x="-79.1" y="-48.6" class="st0" width="1120" height="241.4"/>
<g transform="translate(1 1)" class="st1">
	<g class="st2">
		<g>
			<g>
				<path class="st3" d="M960.5,4.6h-72.3c-4,0-7.2,3.2-7.2,7.2v2.9v11.6V61c0,4,3.2,7.2,7.2,7.2h72.3c4,0,7.2-3.2,7.2-7.2V26.3
					V14.8v-2.9C967.7,7.8,964.5,4.6,960.5,4.6z M888.1,7.5h72.3c2.5,0,4.3,1.9,4.3,4.3v1.4h-81v-1.4C883.8,9.4,885.7,7.5,888.1,7.5z
					 M964.8,24.9h-81v-8.7h81V24.9L964.8,24.9z M960.5,65.4h-72.3c-2.5,0-4.3-1.9-4.3-4.3V27.8h81V61
					C964.8,63.5,962.9,65.4,960.5,65.4z"/>
				<path class="st3" d="M889.6,37.9h13c0.7,0,1.5-0.6,1.5-1.5s-0.6-1.5-1.5-1.5h-13c-0.9,0-1.5,0.6-1.5,1.5
					C888.1,37.3,888.7,37.9,889.6,37.9z"/>
				<path class="st3" d="M921.4,35h-13c-0.9,0-1.5,0.6-1.5,1.5s0.6,1.5,1.5,1.5h13c0.9,0,1.5-0.6,1.5-1.5
					C922.8,35.6,922.3,35,921.4,35z"/>
				<path class="st3" d="M911.3,40.8h-21.7c-0.9,0-1.5,0.6-1.5,1.5s0.6,1.5,1.5,1.5h21.7c0.9,0,1.5-0.6,1.5-1.5
					S912.1,40.8,911.3,40.8z"/>
				<path class="st3" d="M921.4,40.8h-4.3c-0.9,0-1.5,0.6-1.5,1.5s0.6,1.5,1.5,1.5h4.3c0.9,0,1.5-0.6,1.5-1.5S922.3,40.8,921.4,40.8
					z"/>
			</g>
		</g>
	</g>
</g>
<g class="st1">
	<path class="st4" d="M740.9,65.4c-0.7,0.8-1.7,1.2-2.8,1.4c-0.6,1.7-2.2,3-4.1,3h-49c-2.4,0-4.3-1.9-4.3-4.3V8.4
		c0-2.4,1.9-4.3,4.3-4.3h49.1c2.4,0,4.3,1.9,4.3,4.3v46.4c1-0.3,2-0.3,3,0V8.4c0-4-3.3-7.3-7.3-7.3H685c-4,0-7.3,3.3-7.3,7.3v57.1
		c0,4,3.3,7.3,7.3,7.3h49.1c4,0,7.3-3.3,7.3-7.3v-0.6C741.3,65.1,741.1,65.2,740.9,65.4z"/>
</g>
<g class="st1">
	<g class="st2">
		<path class="st3" d="M719,32.8v-3.3c0-4.7-4.3-8.6-9.5-8.6s-9.5,3.9-9.5,8.6v3.3c-2,0.3-3.6,2.1-3.6,4.2v11.6
			c0,2.4,1.9,4.3,4.3,4.3h17.5c2.4,0,4.3-1.9,4.3-4.3V37C722.6,34.9,721.1,33.2,719,32.8z M701.3,29.5c0-4.1,3.7-7.4,8.3-7.4
			s8.3,3.3,8.3,7.4v3.3h-16.6V29.5L701.3,29.5z M721.4,48.6c0,1.7-1.4,3.1-3.1,3.1h-17.5c-1.7,0-3.1-1.4-3.1-3.1V37
			c0-1.7,1.4-3.1,3.1-3.1h17.5c1.7,0,3.1,1.4,3.1,3.1V48.6L721.4,48.6z"/>
		<path class="st3" d="M718.3,53.3h-17.5c-2.6,0-4.7-2.1-4.7-4.7V37c0-2.2,1.5-4,3.6-4.5v-3c0-5,4.4-9,9.9-9s9.9,4,9.9,9v3
			c2.1,0.5,3.6,2.4,3.6,4.5v11.6C723,51.2,720.9,53.3,718.3,53.3z M709.6,21.3c-5,0-9.1,3.7-9.1,8.2v3.6h-0.3
			c-1.9,0.3-3.2,1.9-3.2,3.8v11.6c0,2.2,1.8,3.9,3.9,3.9h17.5c2.2,0,3.9-1.8,3.9-3.9V37c0-1.9-1.4-3.5-3.2-3.8h-0.3v-3.6
			C718.7,25,714.6,21.3,709.6,21.3z M718.3,52.1h-17.5c-1.9,0-3.5-1.6-3.5-3.5V37c0-1.9,1.6-3.5,3.5-3.5h17.5c1.9,0,3.5,1.6,3.5,3.5
			v11.6C721.8,50.5,720.2,52.1,718.3,52.1z M700.8,34.3c-1.5,0-2.7,1.2-2.7,2.7v11.6c0,1.5,1.2,2.7,2.7,2.7h17.5
			c1.5,0,2.7-1.2,2.7-2.7V37c0-1.5-1.2-2.7-2.7-2.7H700.8z M718.2,33.1h-17.3v-3.6c0-4.3,3.9-7.8,8.7-7.8s8.7,3.5,8.7,7.8
			L718.2,33.1L718.2,33.1z M701.6,32.4h15.8v-2.9c0-3.9-3.5-7-7.9-7s-7.9,3.1-7.9,7L701.6,32.4L701.6,32.4z"/>
	</g>
	<g class="st2">
		<path class="st3" d="M709.6,37.5c-1.3,0-2.4,1.1-2.4,2.4v3.6c0,1.3,1.1,2.4,2.4,2.4s2.4-1.1,2.4-2.4v-3.6
			C711.9,38.6,710.9,37.5,709.6,37.5z M710.7,43.4c0,0.7-0.5,1.2-1.2,1.2s-1.2-0.5-1.2-1.2v-3.6c0-0.7,0.5-1.2,1.2-1.2
			s1.2,0.5,1.2,1.2V43.4z"/>
		<path class="st3" d="M709.6,46.2c-1.5,0-2.8-1.2-2.8-2.8v-3.6c0-1.5,1.2-2.8,2.8-2.8s2.8,1.2,2.8,2.8v3.6
			C712.3,44.9,711.1,46.2,709.6,46.2z M709.6,37.9c-1.1,0-2,0.9-2,2v3.6c0,1.1,0.9,2,2,2s2-0.9,2-2v-3.6
			C711.5,38.8,710.7,37.9,709.6,37.9z M709.6,45c-0.9,0-1.6-0.7-1.6-1.6v-3.6c0-0.9,0.7-1.6,1.6-1.6s1.6,0.7,1.6,1.6v3.6
			C711.1,44.3,710.4,45,709.6,45z M709.6,39.1c-0.5,0-0.8,0.4-0.8,0.8v3.6c0,0.5,0.4,0.8,0.8,0.8s0.8-0.4,0.8-0.8v-3.6
			C710.4,39.4,710,39.1,709.6,39.1z"/>
	</g>
</g>
<path class="st5" d="M275.9,67.2c-4.9,3.5-10.7,5.9-17,6.7c4.9-4.7,8.8-10.2,11.5-16.3c2.1,0.8,4.2,1.7,6.2,2.7
	c0.5-0.5,1.1-0.8,1.8-0.9c0.2-0.3,0.4-0.7,0.5-1c-2.4-1.3-4.9-2.5-7.4-3.4c2.1-5.4,3.2-11.1,3.4-17h16.7c-0.2,6.4-2.1,12.4-5.2,17.7
	c0.4,0.2,0.7,0.4,1,0.7c0.4,0.4,0.7,0.8,1,1.3c3.8-6.2,6-13.4,6-21.1c0-10.7-4.2-20.4-11-27.7l0,0l0,0c-7.1-7.5-17-12.4-28-12.7l0,0
	h-0.8c-0.2,0-0.4,0-0.6,0c-0.2,0-0.4,0-0.6,0h-0.8l0,0c-11,0.4-21,5.2-28,12.7l0,0l0,0c-6.8,7.2-11,17-11,27.7
	c0,10.3,3.9,19.7,10.2,26.8l0,0l0.1,0.1c7.1,8,17.3,13.1,28.7,13.5l0,0h0.8c0.2,0,0.4,0,0.6,0c0.2,0,0.4,0,0.6,0h0.8l0,0
	c8.6-0.3,16.5-3.3,22.9-8.1C277.3,68.6,276.5,68,275.9,67.2z M249.1-0.7c-4.6,4.4-8.3,9.5-11,15.1c-3.6-1.2-7-2.9-10.2-4.9
	C233.6,4,240.9,0.4,249.1-0.7z M226,11.5c3.5,2.3,7.2,4.1,11,5.4c-2.4,5.7-3.7,11.9-3.8,18.3h-16.8C216.7,26.1,220.3,17.9,226,11.5z
	 M225.2,60.8c-5.2-6.2-8.5-14.1-8.8-22.8h16.7c0.2,5.9,1.3,11.7,3.4,17C232.5,56.5,228.8,58.4,225.2,60.8z M227.1,62.9
	c3.3-2.2,6.8-4,10.5-5.3c2.7,6.1,6.6,11.6,11.5,16.3C240.5,72.8,232.9,68.8,227.1,62.9z M252.6,73.4c-5.4-4.7-9.5-10.3-12.4-16.6
	c4-1.2,8.1-1.8,12.4-2V73.4z M252.6,52c-4.6,0.1-9.1,0.8-13.5,2.2c-2-5.1-3.1-10.5-3.2-16.1h16.7V52L252.6,52z M252.6,35.2h-16.7
	c0.2-6.1,1.4-11.9,3.7-17.4c4.2,1.2,8.5,1.9,13,2V35.2z M252.6,17c-4-0.1-8-0.7-11.8-1.8c2.8-5.8,6.8-11,11.8-15.4V17z M291.6,35.2
	h-16.7c-0.2-6.4-1.5-12.5-3.8-18.3c3.9-1.4,7.5-3.2,11-5.4C287.8,17.9,291.3,26.1,291.6,35.2z M280.1,9.5c-3.2,2-6.6,3.7-10.2,4.9
	c-2.7-5.6-6.4-10.7-11-15.1C267.1,0.4,274.4,4,280.1,9.5z M255.4-0.1c5,4.4,9,9.6,11.8,15.4c-3.8,1.1-7.8,1.7-11.8,1.8L255.4-0.1
	L255.4-0.1z M255.4,19.8c4.4-0.1,8.8-0.8,13-2c2.3,5.5,3.5,11.3,3.7,17.4h-16.7L255.4,19.8L255.4,19.8z M255.4,38h16.7
	c-0.2,5.6-1.3,11-3.2,16.1c-4.3-1.3-8.9-2-13.5-2.2V38L255.4,38z M255.4,73.4V54.8c4.2,0.1,8.4,0.8,12.4,2
	C265,63,260.8,68.7,255.4,73.4z"/>
<g class="st1">
	<g id="Page-1_5_" class="st2">
		<g id="_x30_06---Hacker" transform="translate(-1)">
			<path class="st3" d="M529.9,62.6c-1.5,2.6-3.1,5.5-5.7,7.1l0,0c-1.5,1.8-3.6,3.6-6.2,4.6c0-0.2,0-0.4,0.1-0.6
				c0-1.2-0.5-2.3-1.5-3.1c0.3-0.3,0.5-0.6,0.7-1c-0.8-0.4-1.5-0.9-2.2-1.6c-0.4,0.9-1.4,1.5-2.4,1.5h-35.4c-1.5,0-2.7-1.2-2.7-2.7
				V45.2c0-1.5,1.2-2.7,2.7-2.7h35.4c1.5,0,2.7,1.2,2.7,2.7v13.3c0.9-0.3,1.8-0.4,2.7-0.3v-13c0-3-2.4-5.4-5.4-5.4h-35.4
				c-3,0-5.4,2.4-5.4,5.4V67c0,1.4,0.5,2.7,1.5,3.7c-0.9,0.8-1.5,1.9-1.5,3.1c0,0.2,0,0.4,0.1,0.6c-4.4-1.7-7.4-5.8-8.6-7.9
				c-0.9-1.4-1.2-3.2-0.8-4.8l4.4-20.3c0.3-1.5,1.1-2.8,2.3-3.8c2.8-2.1,5.8-3.8,9-5.1c3.1,2.2,8.3,4.1,16.7,4.7h0.2
				c8.4-0.6,13.5-2.5,16.7-4.7c3.2,1.3,6.3,3,9.1,5.1c1.2,1,2,2.3,2.3,3.8l3,13.8c0.8,0,1.5,0.2,2.2,0.6c0.3,0.2,0.6,0.4,0.9,0.7
				L526,40.8c-0.4-2.1-1.6-4-3.3-5.4c-2.6-2-5.4-3.6-8.4-5c1.5-1.5,2.5-3.5,2.7-5.6c0-15.6-14.6-25.3-19.1-27.9c-1.7-1-3.7-1-5.4,0
				C487.6-0.5,473,9.1,473,24.7c0.2,2.1,1.1,4.1,2.7,5.6c-3,1.3-5.8,3-8.4,5c-1.7,1.3-2.9,3.3-3.3,5.4L459.6,61
				c-0.5,2.3-0.1,4.8,1.2,6.8c1.8,3,6.9,9.9,15,9.9h38.1c8,0,13.1-7,15-9.9c1.1-1.8,1.5-3.8,1.3-5.9C530,62.2,530,62.4,529.9,62.6z
				 M493.5-0.8c0.8-0.5,1.8-0.5,2.6,0c3.7,2.1,14.6,9.3,17.2,20.6c-2.9-2.3-8.3-4.6-18.5-4.6s-15.6,2.3-18.5,4.6
				C478.9,8.5,489.8,1.4,493.5-0.8z M503.8,18.7l-0.4,2.8c-0.2,1.6-1.1,3.1-2.3,4.1l-2.3,1.8c-2.4,1.8-5.6,1.8-8,0l-2.3-1.8
				c-1.3-1-2.1-2.5-2.3-4.1l-0.4-2.8c3-0.6,6-0.8,9-0.8C497.8,17.9,500.8,18.2,503.8,18.7z M483.1,19.4l0.4,2.5
				c0.3,2.3,1.5,4.4,3.3,5.8l2.3,1.8c3.3,2.7,8.1,2.7,11.4,0l2.3-1.8c1.8-1.5,3-3.5,3.3-5.8l0.3-2.5c5.9,1.8,7.2,4.8,7.4,5.4
				c-0.2,1.1-1.8,8.2-19,9.4c-17.4-1.2-18.9-8.4-19-9.4C475.9,24.3,477.2,21.3,483.1,19.4z M513.8,75.1h-38.1
				c-0.8,0-1.4-0.6-1.4-1.4s0.6-1.4,1.4-1.4h38.1c0.8,0,1.4,0.6,1.4,1.4S514.6,75.1,513.8,75.1z"/>
		</g>
	</g>
</g>
<path class="st5" d="M737.1,49.3c-6.8,0-12.4,5.5-12.4,12.4S730.3,74,737.1,74s12.4-5.5,12.4-12.4S743.9,49.3,737.1,49.3z
	 M743.1,58.8l-7,7c-0.2,0.2-0.5,0.3-0.7,0.3s-0.5-0.1-0.7-0.3l-3.5-3.5c-0.4-0.4-0.4-1,0-1.4s1-0.4,1.4,0l2.8,2.8l6.3-6.3
	c0.4-0.4,1-0.4,1.4,0C743.5,57.8,743.5,58.4,743.1,58.8z"/>
<path class="st5" d="M521,49.3c-6.8,0-12.4,5.5-12.4,12.4c0,6.8,5.5,12.4,12.4,12.4s12.4-5.5,12.4-12.4S527.8,49.3,521,49.3z
	 M527,58.8l-7,7c-0.2,0.2-0.5,0.3-0.7,0.3s-0.5-0.1-0.7-0.3l-3.5-3.5c-0.4-0.4-0.4-1,0-1.4s1-0.4,1.4,0l2.8,2.8l6.3-6.3
	c0.4-0.4,1-0.4,1.4,0C527.4,57.8,527.4,58.5,527,58.8z"/>
<path class="st5" d="M282.3,49.3c-6.8,0-12.4,5.5-12.4,12.4c0,6.8,5.5,12.4,12.4,12.4s12.4-5.5,12.4-12.4S289.1,49.3,282.3,49.3z
	 M288.3,58.8l-7,7c-0.2,0.2-0.5,0.3-0.7,0.3s-0.5-0.1-0.7-0.3l-3.5-3.5c-0.4-0.4-0.4-1,0-1.4s1-0.4,1.4,0l2.8,2.8l6.3-6.3
	c0.4-0.4,1-0.4,1.4,0C288.7,57.8,288.7,58.5,288.3,58.8z"/>
<path class="st5" d="M959.4,49.3c-6.8,0-12.4,5.5-12.4,12.4S952.6,74,959.4,74s12.4-5.5,12.4-12.4S966.2,49.3,959.4,49.3z
	 M965.4,58.8l-7,7c-0.2,0.2-0.5,0.3-0.7,0.3s-0.5-0.1-0.7-0.3l-3.5-3.5c-0.4-0.4-0.4-1,0-1.4s1-0.4,1.4,0l2.8,2.8l6.3-6.3
	c0.4-0.4,1-0.4,1.4,0C965.7,57.8,965.7,58.4,965.4,58.8z"/>
<g>
	<g>
		<polygon class="st6" points="60.2,63.4 59.7,62.6 59.7,62.6 		"/>
		<polygon class="st6" points="15.6,63.3 16,62.6 16,62.6 		"/>
		<path class="st6" d="M37.9,2.5C18.4,2.5,2.5,18.4,2.5,37.9s15.8,35.4,35.4,35.4s35.4-15.8,35.4-35.4S57.4,2.5,37.9,2.5z"/>
		<path class="st7" d="M64.7,11.1C57.6,4,47.9,0,37.9,0C17,0,0,17,0,37.9s17,37.9,37.9,37.9s37.9-17,37.9-37.9
			C75.8,27.8,71.8,18.2,64.7,11.1z M37.9,73.3c-19.5,0-35.4-15.8-35.4-35.4S18.4,2.5,37.9,2.5s35.4,15.8,35.4,35.4
			S57.4,73.3,37.9,73.3z"/>
		<path class="st6" d="M41.1,35.9c-0.7-1.1-1.9-1.8-3.2-1.8c-0.6,0-1.1,0.1-1.6,0.4l5.1,5.1C41.9,38.3,41.8,37,41.1,35.9z"/>
		<path class="st6" d="M37.9,41.7c0.6,0,1.1-0.1,1.6-0.4l-5.1-5.1c-0.6,1.2-0.5,2.5,0.2,3.6C35.4,41,36.6,41.7,37.9,41.7z"/>
		<path class="st6" d="M19,19.9c0.1-0.4,0.5-0.8,0.9-0.9s0.9,0,1.2,0.3l13.3,13.3c1-0.7,2.2-1,3.5-1l0,0l0,0c2.3,0,4.5,1.3,5.6,3.3
			s1,4.5-0.3,6.5l0.7,0.7c0.2,0.2,0.4,0.6,0.4,0.9c0,0.3-0.1,0.7-0.4,0.9c-0.2,0.2-0.6,0.4-0.9,0.4c-0.3,0-0.7-0.1-0.9-0.4l-0.7-0.7
			c-2.5,1.6-5.8,1.3-7.9-0.8S31,37,32.7,34.5L19.3,21.1C19,20.8,18.9,20.3,19,19.9z"/>
		<polygon class="st6" points="58.4,60.2 58.4,60.2 56.2,56.1 		"/>
		<path class="st7" d="M33.4,42.3c2.1,2.1,5.4,2.5,7.9,0.8l0.7,0.7c0.2,0.2,0.6,0.4,0.9,0.4c0.3,0,0.7-0.1,0.9-0.4
			c0.2-0.2,0.4-0.6,0.4-0.9c0-0.3-0.1-0.7-0.4-0.9l-0.7-0.7c1.3-1.9,1.4-4.4,0.3-6.5c-1.1-2-3.2-3.3-5.6-3.3c-1.2,0-2.4,0.4-3.5,1
			L21.1,19.3c-0.3-0.3-0.8-0.4-1.2-0.3c-0.4,0.1-0.8,0.5-0.9,0.9s0,0.9,0.3,1.2l13.3,13.3C31,36.9,31.3,40.2,33.4,42.3z"/>
		<polygon points="59.7,62.6 59.7,62.6 58.4,60.2 		"/>
		<path class="st7" d="M63.5,21.7L61.4,23c-0.5,0.3-0.7,0.9-0.6,1.4c0.1,0.6,0.7,0.9,1.2,0.9c0.2,0,0.4-0.1,0.6-0.2l2.2-1.3
			c2.1,3.9,3.3,8.3,3.4,12.8h-2.5c-0.7,0-1.3,0.6-1.3,1.3s0.6,1.3,1.3,1.3h2.5c-0.2,3.5-0.9,6.9-2.2,10.1c0.9,0.4,1.6,1,2.1,1.8
			c1.8-4.1,2.7-8.6,2.7-13.2c0-5.7-1.5-11.4-4.4-16.3c0,0,0,0,0-0.1h-0.1c-2.9-4.9-7-9-11.9-11.9h-0.1c-10.1-5.8-22.6-5.8-32.7,0
			h-0.1c-5,2.9-9.1,7-12,11.9v0.1c-7,12-5.7,27,3.2,37.6c1,1.2,2.1,2.3,3.2,3.3l1.3-2.4c-5.9-5.4-9.4-13-9.7-21H10
			c0.7,0,1.3-0.6,1.3-1.3s-0.6-1.3-1.3-1.3H7.6C7.8,32.2,9,27.8,11,23.8l2.2,1.3c0.6,0.3,1.4,0.1,1.7-0.5c0.2-0.3,0.2-0.6,0.1-1
			c-0.1-0.3-0.3-0.6-0.6-0.8l-2.1-1.3c2.4-3.8,5.6-7,9.3-9.4l1.3,2.2c0.2,0.3,0.4,0.5,0.8,0.6c0.3,0.1,0.7,0,1-0.1
			c0.6-0.3,0.8-1.1,0.5-1.7L23.9,11c3.9-2.1,8.3-3.3,12.8-3.4v2.5c0,0.7,0.6,1.3,1.3,1.3s1.3-0.6,1.3-1.3V7.6C43.6,7.8,48,9,51.9,11
			l-1.3,2.2c-0.3,0.6-0.1,1.4,0.5,1.7c0.3,0.2,0.6,0.2,1,0.1c0.3-0.1,0.6-0.3,0.8-0.6l1.3-2.2C57.9,14.7,61.1,17.9,63.5,21.7z"/>
		<path d="M19.3,61.9l0.1-0.1l0,0L19.3,61.9z"/>
	</g>
	<path class="st7" d="M62.7,45.6c-6.8,0-12.4,5.5-12.4,12.4s5.5,12.4,12.4,12.4S75,64.8,75,58S69.5,45.6,62.7,45.6z M68.6,55.2l-7,7
		c-0.2,0.2-0.4,0.3-0.7,0.3s-0.5-0.1-0.7-0.3l-3.5-3.5c-0.4-0.4-0.4-1,0-1.4s1-0.4,1.4,0l2.8,2.8l6.3-6.3c0.4-0.4,1-0.4,1.4,0
		C69,54.1,69,54.8,68.6,55.2z"/>
</g>
</svg>
