<?xml version="1.0" encoding="utf-8"?>
<!-- Generator: Adobe Illustrator 24.0.0, SVG Export Plug-In . SVG Version: 6.00 Build 0)  -->
<svg version="1.1" id="Layer_1" xmlns="http://www.w3.org/2000/svg" xmlns:xlink="http://www.w3.org/1999/xlink" x="0px" y="0px"
	 viewBox="0 0 67.5 78.3" style="enable-background:new 0 0 67.5 78.3;" xml:space="preserve">
<style type="text/css">
	.st0{display:none;fill:#0C1B30;}
	.st1{display:none;}
	.st2{display:inline;}
	.st3{fill:#4FF353;}
	.st4{display:inline;fill:#4FF353;}
	.st5{display:none;fill:#4FF353;}
	.st6{fill:#7D8A9B;}
</style>
<rect x="-80.3" y="-47.4" class="st0" width="1120" height="241.4"/>
<g transform="translate(1 1)" class="st1">
	<g class="st2">
		<g>
			<g>
				<path class="st3" d="M959.3,5.9H887c-4,0-7.2,3.2-7.2,7.2V16v11.6v34.7c0,4.1,3.2,7.2,7.2,7.2h72.3c4,0,7.2-3.2,7.2-7.2V27.6V16
					v-2.9C966.5,9.1,963.3,5.9,959.3,5.9z M886.9,8.8h72.3c2.5,0,4.3,1.9,4.3,4.3v1.4h-81v-1.4C882.6,10.7,884.5,8.8,886.9,8.8z
					 M963.6,26.1h-81v-8.7h81V26.1L963.6,26.1z M959.3,66.7H887c-2.5,0-4.3-1.9-4.3-4.3V29h81v33.3
					C963.6,64.8,961.7,66.7,959.3,66.7z"/>
				<path class="st3" d="M888.4,39.2h13c0.7,0,1.5-0.6,1.5-1.5s-0.6-1.5-1.5-1.5h-13c-0.9,0-1.5,0.6-1.5,1.5
					C886.9,38.6,887.5,39.2,888.4,39.2z"/>
				<path class="st3" d="M920.2,36.3h-13c-0.9,0-1.5,0.6-1.5,1.5s0.6,1.5,1.5,1.5h13c0.9,0,1.5-0.6,1.5-1.5
					C921.6,36.8,921.1,36.3,920.2,36.3z"/>
				<path class="st3" d="M910.1,42h-21.7c-0.9,0-1.5,0.6-1.5,1.5s0.6,1.5,1.5,1.5h21.7c0.9,0,1.5-0.6,1.5-1.5S910.9,42,910.1,42z"/>
				<path class="st3" d="M920.2,42h-4.3c-0.9,0-1.5,0.6-1.5,1.5s0.6,1.5,1.5,1.5h4.3c0.9,0,1.5-0.6,1.5-1.5S921.1,42,920.2,42z"/>
			</g>
		</g>
	</g>
</g>
<g class="st1">
	<path class="st4" d="M739.7,66.7c-0.7,0.8-1.7,1.2-2.8,1.4c-0.6,1.7-2.2,3-4.1,3h-49.1c-2.4,0-4.3-1.9-4.3-4.3V9.6
		c0-2.4,1.9-4.3,4.3-4.3h49.1c2.4,0,4.3,1.9,4.3,4.3V56c1-0.3,2-0.3,3,0V9.6c0-4-3.3-7.3-7.3-7.3h-49.1c-4,0-7.3,3.3-7.3,7.3v57.1
		c0,4,3.3,7.3,7.3,7.3h49.1c4,0,7.3-3.3,7.3-7.3v-0.6C740.1,66.3,739.9,66.5,739.7,66.7z"/>
</g>
<g class="st1">
	<g class="st2">
		<path class="st3" d="M717.8,34.1v-3.3c0-4.7-4.3-8.6-9.5-8.6s-9.5,3.9-9.5,8.6v3.3c-2,0.3-3.6,2.1-3.6,4.2v11.6
			c0,2.4,1.9,4.3,4.3,4.3H717c2.4,0,4.3-1.9,4.3-4.3V38.3C721.4,36.2,719.9,34.4,717.8,34.1z M700.1,30.8c0-4.1,3.7-7.4,8.3-7.4
			s8.3,3.3,8.3,7.4V34h-16.6V30.8L700.1,30.8z M720.2,49.9c0,1.7-1.4,3.1-3.1,3.1h-17.5c-1.7,0-3.1-1.4-3.1-3.1V38.3
			c0-1.7,1.4-3.1,3.1-3.1h17.5c1.7,0,3.1,1.4,3.1,3.1V49.9L720.2,49.9z"/>
		<path class="st3" d="M717.1,54.5h-17.5c-2.6,0-4.7-2.1-4.7-4.7V38.3c0-2.2,1.5-4,3.6-4.5v-3c0-5,4.4-9,9.9-9s9.9,4,9.9,9v3
			c2.1,0.5,3.6,2.4,3.6,4.5v11.6C721.8,52.5,719.7,54.5,717.1,54.5z M708.4,22.5c-5,0-9.1,3.7-9.1,8.2v3.6H699
			c-1.9,0.3-3.2,1.9-3.2,3.8v11.6c0,2.2,1.8,3.9,3.9,3.9h17.5c2.2,0,3.9-1.8,3.9-3.9V38.3c0-1.9-1.4-3.5-3.2-3.8h-0.3v-3.6
			C717.5,26.2,713.4,22.5,708.4,22.5z M717.1,53.4h-17.5c-1.9,0-3.5-1.6-3.5-3.5V38.3c0-1.9,1.6-3.5,3.5-3.5h17.5
			c1.9,0,3.5,1.6,3.5,3.5v11.6C720.6,51.8,719,53.4,717.1,53.4z M699.6,35.6c-1.5,0-2.7,1.2-2.7,2.7v11.6c0,1.5,1.2,2.7,2.7,2.7
			h17.5c1.5,0,2.7-1.2,2.7-2.7V38.3c0-1.5-1.2-2.7-2.7-2.7H699.6z M717,34.4h-17.3v-3.6c0-4.3,3.9-7.8,8.7-7.8s8.7,3.5,8.7,7.8
			L717,34.4L717,34.4z M700.4,33.6h15.8v-2.9c0-3.9-3.5-7-7.9-7s-7.9,3.1-7.9,7L700.4,33.6L700.4,33.6z"/>
	</g>
	<g class="st2">
		<path class="st3" d="M708.4,38.8c-1.3,0-2.4,1.1-2.4,2.4v3.6c0,1.3,1.1,2.4,2.4,2.4s2.4-1.1,2.4-2.4v-3.6
			C710.7,39.8,709.7,38.8,708.4,38.8z M709.5,44.7c0,0.7-0.5,1.2-1.2,1.2s-1.2-0.5-1.2-1.2v-3.6c0-0.7,0.5-1.2,1.2-1.2
			s1.2,0.5,1.2,1.2V44.7z"/>
		<path class="st3" d="M708.4,47.4c-1.5,0-2.8-1.2-2.8-2.8V41c0-1.5,1.2-2.8,2.8-2.8s2.8,1.2,2.8,2.8v3.6
			C711.1,46.2,709.9,47.4,708.4,47.4z M708.4,39.1c-1.1,0-2,0.9-2,2v3.6c0,1.1,0.9,2,2,2s2-0.9,2-2v-3.6
			C710.3,40,709.4,39.1,708.4,39.1z M708.4,46.3c-0.9,0-1.6-0.7-1.6-1.6v-3.6c0-0.9,0.7-1.6,1.6-1.6s1.6,0.7,1.6,1.6v3.6
			C709.9,45.5,709.2,46.3,708.4,46.3z M708.4,40.3c-0.5,0-0.8,0.4-0.8,0.8v3.6c0,0.5,0.4,0.8,0.8,0.8s0.8-0.4,0.8-0.8v-3.6
			C709.2,40.7,708.8,40.3,708.4,40.3z"/>
	</g>
</g>
<path class="st5" d="M274.7,68.5c-4.9,3.5-10.7,5.9-17,6.7c4.9-4.7,8.8-10.2,11.5-16.3c2.1,0.8,4.2,1.7,6.2,2.7
	c0.5-0.5,1.1-0.8,1.8-0.9c0.2-0.3,0.4-0.7,0.5-1c-2.4-1.3-4.9-2.5-7.4-3.4c2.1-5.4,3.2-11.1,3.4-17h16.7c-0.2,6.4-2.1,12.4-5.2,17.7
	c0.4,0.2,0.7,0.4,1,0.7c0.4,0.4,0.7,0.8,1,1.3c3.8-6.2,6-13.4,6-21.1c0-10.7-4.2-20.4-11-27.7l0,0l0,0c-7.1-7.5-17-12.4-28-12.7l0,0
	h-0.8c-0.2,0-0.4,0-0.6,0s-0.4,0-0.6,0h-0.8l0,0c-11,0.4-21,5.2-28,12.7l0,0l0,0c-6.8,7.2-11,17-11,27.7c0,10.3,3.9,19.7,10.2,26.8
	l0,0l0.1,0.1c7.1,8,17.3,13.1,28.7,13.5l0,0h0.8c0.2,0,0.4,0,0.6,0s0.4,0,0.6,0h0.8l0,0c8.6-0.3,16.5-3.3,22.9-8.1
	C276.1,69.9,275.3,69.3,274.7,68.5z M247.9,0.5c-4.6,4.4-8.3,9.5-11,15.1c-3.6-1.2-7-2.9-10.2-4.9C232.4,5.3,239.7,1.6,247.9,0.5z
	 M224.8,12.8c3.5,2.3,7.2,4.1,11,5.4c-2.4,5.7-3.7,11.9-3.8,18.3h-16.8C215.5,27.4,219.1,19.1,224.8,12.8z M224,62.1
	c-5.2-6.2-8.5-14.1-8.8-22.8h16.7c0.2,5.9,1.3,11.7,3.4,17C231.3,57.7,227.5,59.7,224,62.1z M225.9,64.2c3.3-2.2,6.8-4,10.5-5.3
	c2.7,6.1,6.6,11.6,11.5,16.3C239.3,74.1,231.7,70.1,225.9,64.2z M251.4,74.6C246,69.9,241.9,64.3,239,58c4-1.2,8.1-1.8,12.4-2V74.6z
	 M251.4,53.3c-4.6,0.1-9.1,0.8-13.5,2.2c-2-5.1-3.1-10.5-3.2-16.1h16.7V53.3L251.4,53.3z M251.4,36.5h-16.7
	c0.2-6.1,1.4-11.9,3.7-17.4c4.2,1.2,8.5,1.9,13,2V36.5z M251.4,18.3c-4-0.1-8-0.7-11.8-1.8c2.8-5.8,6.8-11,11.8-15.4V18.3z
	 M290.4,36.5h-16.7c-0.2-6.4-1.5-12.5-3.8-18.3c3.9-1.4,7.5-3.2,11-5.4C286.6,19.1,290.1,27.4,290.4,36.5z M278.9,10.8
	c-3.2,2-6.6,3.7-10.2,4.9c-2.7-5.6-6.4-10.7-11-15.1C265.9,1.6,273.2,5.3,278.9,10.8z M254.2,1.1c5,4.4,9,9.6,11.8,15.4
	c-3.8,1.1-7.8,1.7-11.8,1.8V1.1z M254.2,21.1c4.4-0.1,8.8-0.8,13-2c2.3,5.5,3.5,11.3,3.7,17.4h-16.7L254.2,21.1L254.2,21.1z
	 M254.2,39.3h16.7c-0.2,5.6-1.3,11-3.2,16.1c-4.3-1.3-8.9-2-13.5-2.2L254.2,39.3L254.2,39.3z M254.2,74.6V56c4.2,0.1,8.4,0.8,12.4,2
	C263.7,64.3,259.6,69.9,254.2,74.6z"/>
<g class="st1">
	<g id="Page-1_5_" class="st2">
		<g id="_x30_06---Hacker" transform="translate(-1)">
			<path class="st3" d="M528.6,63.8c-1.5,2.6-3.1,5.5-5.7,7.1l0,0c-1.5,1.8-3.6,3.6-6.2,4.6c0-0.2,0-0.4,0.1-0.6
				c0-1.2-0.5-2.3-1.5-3.1c0.3-0.3,0.5-0.6,0.7-1c-0.8-0.4-1.5-0.9-2.2-1.6c-0.4,0.9-1.4,1.5-2.4,1.5H476c-1.5,0-2.7-1.2-2.7-2.7
				V46.4c0-1.5,1.2-2.7,2.7-2.7h35.4c1.5,0,2.7,1.2,2.7,2.7v13.3c0.9-0.3,1.8-0.4,2.7-0.3v-13c0-3-2.4-5.4-5.4-5.4H476
				c-3,0-5.4,2.4-5.4,5.4v21.8c0,1.4,0.5,2.7,1.5,3.7c-0.9,0.8-1.5,1.9-1.5,3.1c0,0.2,0,0.4,0.1,0.6c-4.4-1.7-7.4-5.8-8.6-7.9
				c-0.9-1.4-1.2-3.2-0.8-4.8l4.4-20.3c0.3-1.5,1.1-2.8,2.3-3.8c2.8-2.1,5.8-3.8,9-5.1c3.1,2.2,8.3,4.1,16.7,4.7h0.2
				c8.4-0.6,13.5-2.5,16.7-4.7c3.2,1.3,6.3,3,9,5.1c1.2,1,2,2.3,2.3,3.8l3,13.8c0.8,0,1.5,0.2,2.2,0.6c0.3,0.2,0.6,0.4,0.9,0.7
				L524.4,42c-0.4-2.1-1.6-4-3.3-5.4c-2.6-2-5.4-3.6-8.4-5c1.5-1.5,2.5-3.5,2.7-5.6c0-15.6-14.6-25.3-19.1-27.9c-1.7-1-3.7-1-5.4,0
				c-4.5,2.6-19.1,12.3-19.1,27.9c0.2,2.1,1.1,4.1,2.7,5.6c-3,1.3-5.8,3-8.4,5c-1.7,1.3-2.9,3.3-3.3,5.4l-4.4,20.3
				c-0.5,2.3-0.1,4.8,1.2,6.8c1.8,3,6.9,9.9,15,9.9h38c8,0,13.1-7,15-9.9c1.1-1.8,1.5-3.8,1.3-5.9C528.8,63.5,528.8,63.7,528.6,63.8
				z M492.2,0.5c0.8-0.5,1.8-0.5,2.6,0c3.7,2.1,14.6,9.3,17.2,20.6c-2.9-2.3-8.3-4.6-18.5-4.6s-15.6,2.3-18.5,4.6
				C477.7,9.8,488.6,2.6,492.2,0.5z M502.6,20l-0.4,2.8c-0.2,1.6-1.1,3.1-2.3,4.1l-2.3,1.8c-2.4,1.8-5.6,1.8-8,0l-2.3-1.8
				c-1.3-1-2.1-2.5-2.3-4.1l-0.4-2.8c3-0.6,6-0.8,9-0.8S499.6,19.4,502.6,20z M481.9,20.7l0.4,2.5c0.3,2.3,1.5,4.4,3.3,5.8l2.3,1.8
				c3.3,2.7,8.1,2.7,11.4,0l2.3-1.8c1.8-1.5,3-3.5,3.3-5.8l0.3-2.5c5.9,1.8,7.2,4.8,7.4,5.4c-0.2,1.1-1.8,8.2-19,9.4
				c-17.4-1.2-18.9-8.4-19-9.4C474.7,25.5,476,22.5,481.9,20.7z M512.6,76.4h-38.1c-0.8,0-1.4-0.6-1.4-1.4s0.6-1.4,1.4-1.4h38.1
				c0.8,0,1.4,0.6,1.4,1.4S513.4,76.4,512.6,76.4z"/>
		</g>
	</g>
</g>
<path class="st5" d="M735.9,50.5c-6.8,0-12.4,5.5-12.4,12.4s5.5,12.4,12.4,12.4s12.4-5.5,12.4-12.4S742.7,50.5,735.9,50.5z
	 M741.9,60.1l-7,7c-0.2,0.2-0.5,0.3-0.7,0.3s-0.5-0.1-0.7-0.3l-3.5-3.5c-0.4-0.4-0.4-1,0-1.4s1-0.4,1.4,0l2.8,2.8l6.3-6.3
	c0.4-0.4,1-0.4,1.4,0C742.3,59.1,742.3,59.7,741.9,60.1z"/>
<path class="st5" d="M519.8,50.5c-6.8,0-12.4,5.5-12.4,12.4s5.5,12.4,12.4,12.4s12.4-5.5,12.4-12.4S526.6,50.5,519.8,50.5z
	 M525.8,60.1l-7,7c-0.2,0.2-0.5,0.3-0.7,0.3s-0.5-0.1-0.7-0.3l-3.5-3.5c-0.4-0.4-0.4-1,0-1.4s1-0.4,1.4,0l2.8,2.8l6.3-6.3
	c0.4-0.4,1-0.4,1.4,0C526.2,59.1,526.2,59.7,525.8,60.1z"/>
<path class="st5" d="M281.1,50.5c-6.8,0-12.4,5.5-12.4,12.4s5.5,12.4,12.4,12.4s12.4-5.5,12.4-12.4S287.9,50.5,281.1,50.5z
	 M287.1,60.1l-7,7c-0.2,0.2-0.5,0.3-0.7,0.3s-0.5-0.1-0.7-0.3l-3.5-3.5c-0.4-0.4-0.4-1,0-1.4s1-0.4,1.4,0l2.8,2.8l6.3-6.3
	c0.4-0.4,1-0.4,1.4,0C287.5,59.1,287.5,59.7,287.1,60.1z"/>
<path class="st5" d="M958.2,50.5c-6.8,0-12.4,5.5-12.4,12.4s5.5,12.4,12.4,12.4s12.4-5.5,12.4-12.4S965,50.5,958.2,50.5z
	 M964.1,60.1l-7,7c-0.2,0.2-0.5,0.3-0.7,0.3s-0.5-0.1-0.7-0.3l-3.5-3.5c-0.4-0.4-0.4-1,0-1.4s1-0.4,1.4,0l2.8,2.8l6.3-6.3
	c0.4-0.4,1-0.4,1.4,0C964.5,59.1,964.5,59.7,964.1,60.1z"/>
<g>
	<path class="st6" d="M55.2,46.9c-6.8,0-12.4,5.5-12.4,12.4s5.5,12.4,12.4,12.4S67.5,66,67.5,59.2S62,46.9,55.2,46.9z M61.2,56.4
		l-7,7c-0.2,0.2-0.4,0.3-0.7,0.3s-0.5-0.1-0.7-0.3l-3.5-3.5c-0.4-0.4-0.4-1,0-1.4s1-0.4,1.4,0l2.8,2.8l6.3-6.3c0.4-0.4,1-0.4,1.4,0
		C61.5,55.4,61.5,56,61.2,56.4z"/>
	<path class="st6" d="M21.9,23.2c-0.4,0.2-0.7,0.6-0.7,1.1s0.2,0.9,0.5,1.2s0.9,0.3,1.3,0.1c1.6-0.8,3.3-1.3,5-1.5
		c0.5-0.1,0.8-0.3,1-0.8c0.2-0.4,0.1-0.9-0.2-1.3s-0.7-0.6-1.2-0.5C25.7,21.7,23.7,22.3,21.9,23.2z"/>
	<path class="st6" d="M12.5,66c0.1,0,0.3,0,0.4-0.1c0.3-0.1,0.6-0.3,0.7-0.6c0.2-0.3,0.2-0.7,0.1-1C13.3,63,13,61.6,13,60.2V57
		c0-0.7-0.6-1.3-1.3-1.3s-1.3,0.6-1.3,1.3v3.3c0,1.6,0.3,3.3,0.8,4.8C11.4,65.7,11.9,66,12.5,66z"/>
	<path class="st6" d="M17.1,30c0.7-0.8,1.4-1.5,2.2-2.2c0.5-0.4,0.6-1.3,0.2-1.8s-1.3-0.6-1.8-0.2c-4.6,3.8-7.2,9.4-7.2,15.3v10.8
		c0,0.7,0.6,1.3,1.3,1.3s1.3-0.6,1.3-1.3V41.1C13,37,14.5,33.1,17.1,30z"/>
	<path class="st6" d="M48.7,40.1c0.1,0,0.1,0,0.2,0c0.7-0.1,1.2-0.8,1.1-1.5c-1.2-8.8-8-15.7-16.8-17.1c-0.7-0.1-1.3,0.4-1.4,1.1
		s0.4,1.3,1.1,1.4c7.6,1.2,13.6,7.3,14.6,14.9C47.5,39.6,48,40.1,48.7,40.1z"/>
	<path class="st6" d="M39.9,40.8c-0.2-5.2-4.4-9.3-9.6-9.3c-0.6,0-1.1,0-1.7,0.1c-2.2,0.4-4.3,1.6-5.7,3.3c-1.3,1.5-2.1,3.4-2.2,5.4
		c0,0.2,0,0.5,0,0.7v6c0,2.4,0,5.3,0,8.3c0,4.5,2,8.8,5.5,11.7l1.7,1.4c8.7,7.1,8.7,7.2,8.8,7.2c0.6,0.4,1.3,0.2,1.7-0.3
		c0.4-0.6,0.3-1.3-0.3-1.8c-0.2-0.2-4.4-3.6-8.7-7.1L27.7,65c-2.9-2.4-4.6-6-4.6-9.8c0-3,0-5.9,0-8.3v-6c0-0.1,0-0.3,0-0.4
		c0.1-1.5,0.6-2.9,1.6-4.1c1.1-1.3,2.6-2.2,4.2-2.4c0.4-0.1,0.8-0.1,1.2-0.1c3.8,0,6.9,3,7,6.8c0,0.1,0,0.1,0,0.2v6.5
		c0,2.7,0.7,5.3,2,7.6c0.2,0.4,0.6,0.7,1.1,0.7s0.9-0.2,1.1-0.7c0.2-0.4,0.2-0.9,0-1.3c-1.1-1.9-1.7-4.1-1.7-6.4v-6.4
		C39.9,41,39.9,40.9,39.9,40.8z"/>
	<path class="st6" d="M40.4,72c0.6,0.2,1.3-0.1,1.6-0.6c0.3-0.6,0.1-1.3-0.4-1.6c-0.1-0.1-0.4-0.3-0.8-0.7l-1.2-0.9l-0.1-0.1
		c-1.6-1.3-3.9-3.1-6.4-5.2c-2.9-2.4-4.6-6-4.6-9.7v-1.7c0-2.6,0-4.9,0-6.7v-3.6c0-1,0.8-1.9,1.8-1.9c0.5,0,1,0.2,1.3,0.5
		c0.4,0.4,0.7,1,0.7,1.6v2c0,1.6,0,3.9,0,6.6v0.1c0,4.5,2,8.8,5.5,11.6c0.5,0.4,1,0.9,1.5,1.3c0.5,0.4,1.4,0.4,1.8-0.2
		c0.4-0.5,0.4-1.4-0.2-1.8c-0.5-0.4-1-0.8-1.5-1.2c-2.9-2.4-4.6-5.9-4.6-9.7V50c0-2.7,0-5,0-6.6v-2c0-1.3-0.5-2.6-1.5-3.5
		c-0.9-0.8-2-1.3-3.3-1.2c-1.1,0.1-2.1,0.5-2.9,1.3s-1.3,2-1.3,3.2v3.6c0,1.8,0,4.1,0,6.7v1.7c0,4.5,2,8.9,5.6,11.7
		c2.5,2,4.7,3.9,6.3,5.1l0.1,0.1l1.3,1C40.2,71.9,40.2,71.9,40.4,72z"/>
	<path class="st6" d="M12.3,7.6c0.2,0,0.4,0,0.6-0.1c7.8-4,16.7-5.1,25.2-3.2c0.4,0.1,0.9,0,1.2-0.4c0.2-0.4,0.3-0.9,0.2-1.3
		S39,1.8,38.6,1.7c-9.1-2-18.6-0.8-26.9,3.5c-0.5,0.3-0.8,0.9-0.7,1.4S11.7,7.6,12.3,7.6z"/>
	<path class="st6" d="M42.8,5.6c1.6,0.6,3.2,1.3,4.7,2.1c0.4,0.2,0.9,0.2,1.3,0c0.4-0.2,0.6-0.7,0.6-1.1c0-0.5-0.3-0.9-0.7-1.1
		c-1.6-0.9-3.3-1.6-5-2.2c-0.4-0.2-0.9-0.1-1.3,0.2S41.9,4.3,42,4.7C42,5.1,42.3,5.4,42.8,5.6L42.8,5.6z"/>
	<path class="st6" d="M5.8,19c0.3,0,0.7-0.1,0.9-0.4c8.2-8.6,20.5-12.1,32-9c0.4,0.1,0.9,0,1.3-0.3C40.4,9,40.5,8.5,40.4,8
		c-0.1-0.4-0.5-0.8-0.9-0.9C27.1,3.8,13.8,7.5,5,16.8c-0.4,0.4-0.5,0.9-0.3,1.4C4.9,18.7,5.3,19,5.8,19z"/>
	<path class="st6" d="M44.4,8.9c-0.2,0-0.3-0.1-0.5-0.1l0,0c-0.1,0-0.1,0-0.2,0c-0.1,0-0.2,0-0.3,0.1c-0.1,0-0.2,0.1-0.2,0.1
		c-0.1,0-0.1,0.1-0.2,0.1c-0.1,0.1-0.1,0.2-0.2,0.3l-0.1,0.1l0,0c0,0.1,0,0.2-0.1,0.2c0,0.1,0,0.2-0.1,0.3l0,0c0,0.1,0,0.1,0,0.2
		c0,0.1,0,0.2,0.1,0.3c0,0.1,0.1,0.1,0.1,0.2c0,0.1,0.1,0.1,0.1,0.2c0.1,0.1,0.2,0.1,0.3,0.2l0.1,0.1c5,2.2,9.4,5.6,12.7,9.9
		c0.3,0.4,0.7,0.6,1.2,0.5s0.9-0.4,1-0.8c0.2-0.4,0.1-0.9-0.2-1.3C54.5,14.9,49.8,11.3,44.4,8.9L44.4,8.9z"/>
	<path class="st6" d="M14.2,18.9c2.5-1.8,5.2-3.2,8.2-4.1c0.4-0.1,0.8-0.5,0.9-0.9c0.1-0.5,0-0.9-0.4-1.2c-0.3-0.3-0.8-0.4-1.3-0.3
		c-3.2,1-6.2,2.5-8.9,4.5c-0.6,0.4-0.7,1.2-0.3,1.8C12.8,19.2,13.6,19.3,14.2,18.9z"/>
	<path class="st6" d="M2.5,33.4c0.7,0.2,1.4-0.1,1.6-0.8c1.2-3.8,3.3-7.3,6.1-10.3c0.5-0.5,0.5-1.3-0.1-1.8C9.6,20,8.8,20,8.3,20.6
		c-3,3.2-5.3,7-6.6,11.2C1.5,32.5,1.9,33.2,2.5,33.4z"/>
	<path class="st6" d="M58.9,39.2c0.4,0,0.7-0.2,1-0.4c0.2-0.3,0.4-0.6,0.3-1C58.5,22.5,45.6,11,30.3,11c-1.1,0-2.2,0.1-3.3,0.2
		c-0.5,0-0.9,0.3-1.1,0.8c-0.2,0.4-0.1,0.9,0.1,1.3s0.7,0.6,1.2,0.5c1-0.1,2-0.2,3.1-0.2c14,0,25.8,10.5,27.3,24.5
		C57.7,38.7,58.3,39.2,58.9,39.2z"/>
	<path class="st6" d="M53.9,40.4L53.9,40.4c0.4,0,0.8-0.2,1-0.5s0.3-0.6,0.3-0.9c-0.5-5.4-2.7-10.5-6.3-14.6
		c-0.5-0.5-1.3-0.6-1.8-0.1s-0.6,1.3-0.1,1.8c3.2,3.7,5.2,8.3,5.7,13.1C52.7,39.9,53.2,40.4,53.9,40.4z"/>
	<path class="st6" d="M9.9,31.9c3.7-8.2,12-13.4,21-13.1c0.5,0,0.9-0.2,1.1-0.6s0.3-0.9,0-1.3c-0.2-0.4-0.6-0.7-1.1-0.7
		c-10-0.3-19.3,5.5-23.4,14.6c-1.3,2.8-2.1,5.9-2.2,9c0,0.4,0,0.9,0,1.3c0,2.9,0,4.4,0,4.6c0,0.7,0.6,1.2,1.3,1.2h0.1
		c0.7,0,1.2-0.6,1.2-1.3c0-0.3,0-4.2,0-4.4c0-0.4,0-0.8,0-1.2C8.1,37.1,8.8,34.4,9.9,31.9z"/>
	<path class="st6" d="M36.4,19.5c2.4,0.7,4.7,1.7,6.8,3.2c0.4,0.3,0.9,0.3,1.3,0.1c0.4-0.2,0.7-0.6,0.7-1.1s-0.2-0.9-0.5-1.2
		c-2.3-1.6-4.9-2.8-7.6-3.5l-0.5-0.1c-0.7-0.2-1.4,0.2-1.6,0.9c-0.2,0.7,0.2,1.4,0.9,1.6L36.4,19.5z"/>
	<path class="st6" d="M42.6,47.1c0.1,0.7,0.7,1.2,1.4,1.1c0.7-0.1,1.2-0.7,1.1-1.4C45,46.3,45,45.7,45,45.2v-3.7
		c0.1-5.5-2.8-10.6-7.6-13.2c-4.8-2.7-10.6-2.4-15.2,0.6c-1.9,1.2-3.5,2.9-4.6,4.8c-1.3,2.3-2,4.9-2,7.5V58c0,4.5,2,8.8,5.5,11.7
		l2.8,2.3c2.4,2,4.7,3.8,6.4,5.2c0.5,0.4,1.4,0.4,1.8-0.2c0.4-0.5,0.4-1.4-0.2-1.8c-1.7-1.4-4-3.2-6.4-5.2l-2.8-2.3
		c-2.9-2.4-4.6-6-4.6-9.8V41.1c0-2.2,0.6-4.3,1.7-6.2c2.4-4.1,7.1-6.4,11.8-5.9c6.3,0.8,10.9,6.1,10.8,12.4v3.7
		C42.5,45.8,42.5,46.5,42.6,47.1z"/>
</g>
</svg>
