<?xml version="1.0" encoding="utf-8"?>
<!-- Generator: Adobe Illustrator 24.0.0, SVG Export Plug-In . SVG Version: 6.00 Build 0)  -->
<svg version="1.1" id="Layer_1" xmlns="http://www.w3.org/2000/svg" xmlns:xlink="http://www.w3.org/1999/xlink" x="0px" y="0px"
	 viewBox="0 0 71.8 73" style="enable-background:new 0 0 71.8 73;" xml:space="preserve">
<style type="text/css">
	.st0{display:none;fill:#0C1B30;}
	.st1{display:none;}
	.st2{display:inline;}
	.st3{fill:#4FF353;}
	.st4{fill:#FFFFFF;}
	.st5{display:none;fill:#4FF353;}
	.st6{display:inline;fill:#4FF353;}
</style>
<image style="display:none;overflow:visible;enable-background:new    ;" width="958" height="599" xlink:href="20FCA9FF.jpeg"  transform="matrix(1.2571 0 0 1.2571 -800.9873 -322.4238)">
</image>
<rect x="-759.8" y="-49.6" class="st0" width="1120" height="241.4"/>
<g transform="translate(1 1)" class="st1">
	<g class="st2">
		<g>
			<g>
				<path class="st3" d="M279.7,3.6h-72.3c-4.1,0-7.2,3.2-7.2,7.2v2.9v11.6V60c0,4,3.2,7.2,7.2,7.2h72.3c4,0,7.2-3.2,7.2-7.2V25.3
					V13.7v-2.9C287,6.8,283.8,3.6,279.7,3.6z M207.4,6.5h72.3c2.5,0,4.3,1.9,4.3,4.3v1.4h-81v-1.4C203,8.4,204.9,6.5,207.4,6.5z
					 M284,23.9h-81v-8.7h81V23.9L284,23.9z M279.7,64.4h-72.3c-2.5,0-4.3-1.9-4.3-4.3V26.8h81V60C284,62.5,282.2,64.4,279.7,64.4z"
					/>
				<path class="st3" d="M208.8,36.9h13c0.7,0,1.4-0.6,1.4-1.5s-0.6-1.5-1.4-1.5h-13c-0.9,0-1.4,0.6-1.4,1.5S208,36.9,208.8,36.9z"
					/>
				<path class="st3" d="M240.6,34h-13c-0.9,0-1.4,0.6-1.4,1.5s0.6,1.5,1.4,1.5h13c0.9,0,1.4-0.6,1.4-1.5
					C242.1,34.6,241.5,34,240.6,34z"/>
				<path class="st3" d="M230.5,39.8h-21.7c-0.9,0-1.4,0.6-1.4,1.5s0.6,1.5,1.4,1.5h21.7c0.9,0,1.4-0.6,1.4-1.5
					S231.4,39.8,230.5,39.8z"/>
				<path class="st3" d="M240.6,39.8h-4.3c-0.9,0-1.4,0.6-1.4,1.5s0.6,1.5,1.4,1.5h4.3c0.9,0,1.4-0.6,1.4-1.5S241.5,39.8,240.6,39.8
					z"/>
			</g>
		</g>
	</g>
</g>
<g>
	<path class="st4" d="M63.3,64.4c-0.7,0.8-1.7,1.2-2.8,1.4c-0.6,1.7-2.2,3-4.1,3H7.3c-2.4,0-4.3-1.9-4.3-4.3V7.3C3,4.9,4.9,3,7.3,3
		h49.1c2.4,0,4.3,1.9,4.3,4.3v46.4c1-0.3,2-0.3,3,0V7.3c0-4-3.3-7.3-7.3-7.3H7.3C3.3,0,0,3.3,0,7.3v57.1c0,4,3.3,7.3,7.3,7.3h49.1
		c4,0,7.3-3.3,7.3-7.3v-0.6C63.6,64,63.4,64.2,63.3,64.4z"/>
</g>
<g>
	<g>
		<path class="st4" d="M41.3,31.8v-3.3c0-4.7-4.3-8.6-9.5-8.6s-9.5,3.9-9.5,8.6v3.3c-2,0.3-3.6,2.1-3.6,4.2v11.6
			c0,2.4,1.9,4.3,4.3,4.3h17.5c2.4,0,4.3-1.9,4.3-4.3V36C44.9,33.9,43.4,32.2,41.3,31.8z M23.6,28.5c0-4.1,3.7-7.4,8.3-7.4
			s8.3,3.3,8.3,7.4v3.3H23.6V28.5z M43.7,47.6c0,1.7-1.4,3.1-3.1,3.1H23.1c-1.7,0-3.1-1.4-3.1-3.1V36c0-1.7,1.4-3.1,3.1-3.1h17.5
			c1.7,0,3.1,1.4,3.1,3.1L43.7,47.6L43.7,47.6z"/>
		<path class="st4" d="M40.6,52.3H23.1c-2.6,0-4.7-2.1-4.7-4.7V36c0-2.2,1.5-4,3.6-4.5v-3c0-5,4.4-9,9.9-9s9.9,4,9.9,9v3
			c2.1,0.5,3.6,2.4,3.6,4.5v11.6C45.3,50.2,43.2,52.3,40.6,52.3z M31.9,20.3c-5,0-9.1,3.7-9.1,8.2v3.6l-0.3,0
			c-1.9,0.3-3.2,1.9-3.2,3.8v11.6c0,2.2,1.8,3.9,3.9,3.9h17.5c2.2,0,3.9-1.8,3.9-3.9V36c0-1.9-1.4-3.5-3.2-3.8l-0.3,0v-3.6
			C41,24,36.9,20.3,31.9,20.3z M40.6,51.1H23.1c-1.9,0-3.5-1.6-3.5-3.5V36c0-1.9,1.6-3.5,3.5-3.5h17.5c1.9,0,3.5,1.6,3.5,3.5v11.6
			C44.1,49.5,42.5,51.1,40.6,51.1z M23.1,33.3c-1.5,0-2.7,1.2-2.7,2.7v11.6c0,1.5,1.2,2.7,2.7,2.7h17.5c1.5,0,2.7-1.2,2.7-2.7V36
			c0-1.5-1.2-2.7-2.7-2.7H23.1z M40.5,32.1H23.2v-3.6c0-4.3,3.9-7.8,8.7-7.8s8.7,3.5,8.7,7.8V32.1z M24,31.4h15.8v-2.9
			c0-3.9-3.5-7-7.9-7s-7.9,3.1-7.9,7V31.4z"/>
	</g>
	<g>
		<path class="st4" d="M31.9,36.5c-1.3,0-2.4,1.1-2.4,2.4v3.6c0,1.3,1.1,2.4,2.4,2.4c1.3,0,2.4-1.1,2.4-2.4v-3.6
			C34.2,37.5,33.2,36.5,31.9,36.5z M33.1,42.4c0,0.7-0.5,1.2-1.2,1.2s-1.2-0.5-1.2-1.2v-3.6c0-0.7,0.5-1.2,1.2-1.2
			c0.7,0,1.2,0.5,1.2,1.2V42.4z"/>
		<path class="st4" d="M31.9,45.2c-1.5,0-2.8-1.2-2.8-2.8v-3.6c0-1.5,1.2-2.8,2.8-2.8c1.5,0,2.8,1.2,2.8,2.8v3.6
			C34.6,43.9,33.4,45.2,31.9,45.2z M31.9,36.8c-1.1,0-2,0.9-2,2v3.6c0,1.1,0.9,2,2,2c1.1,0,2-0.9,2-2v-3.6
			C33.9,37.8,33,36.8,31.9,36.8z M31.9,44c-0.9,0-1.6-0.7-1.6-1.6v-3.6c0-0.9,0.7-1.6,1.6-1.6s1.6,0.7,1.6,1.6v3.6
			C33.4,43.3,32.7,44,31.9,44z M31.9,38c-0.5,0-0.8,0.4-0.8,0.8v3.6c0,0.5,0.4,0.8,0.8,0.8s0.8-0.4,0.8-0.8v-3.6
			C32.7,38.4,32.3,38,31.9,38z"/>
	</g>
</g>
<path class="st5" d="M-404.9,66.2c-4.9,3.5-10.7,5.9-17,6.7c4.9-4.7,8.8-10.2,11.5-16.3c2.1,0.8,4.2,1.7,6.2,2.7
	c0.5-0.5,1.1-0.8,1.8-0.9c0.2-0.3,0.4-0.7,0.5-1c-2.4-1.3-4.9-2.5-7.4-3.4c2.1-5.4,3.2-11.1,3.4-17h16.7c-0.2,6.4-2.1,12.4-5.2,17.7
	c0.4,0.2,0.7,0.4,1,0.7c0.4,0.4,0.7,0.8,1,1.3c3.8-6.2,6-13.4,6-21.1c0-10.7-4.2-20.4-11-27.7l0,0c0,0,0,0,0,0
	c-7.1-7.5-17-12.4-28-12.7l0,0l-0.8,0c-0.2,0-0.4,0-0.6,0c-0.2,0-0.4,0-0.6,0l-0.8,0l0,0c-11,0.4-21,5.2-28,12.7c0,0,0,0,0,0l0,0
	c-6.8,7.2-11,17-11,27.7c0,10.3,3.9,19.7,10.2,26.8c0,0,0,0,0,0c0,0,0.1,0,0.1,0.1c7.1,8,17.3,13.1,28.7,13.5l0,0l0.8,0
	c0.2,0,0.4,0,0.6,0c0.2,0,0.4,0,0.6,0l0.8,0l0,0c8.6-0.3,16.5-3.3,22.9-8.1C-403.4,67.6-404.2,67-404.9,66.2z M-431.6-1.7
	c-4.6,4.4-8.3,9.5-11,15.1c-3.5-1.2-7-2.9-10.2-4.9C-447.1,3-439.8-0.7-431.6-1.7z M-454.8,10.5c3.5,2.3,7.2,4.1,11,5.4
	c-2.4,5.7-3.7,11.9-3.8,18.3h-16.7C-464,25.1-460.5,16.9-454.8,10.5z M-455.5,59.8c-5.2-6.2-8.5-14.1-8.8-22.8h16.7
	c0.2,5.9,1.3,11.7,3.4,17C-448.2,55.5-452,57.4-455.5,59.8z M-453.6,61.9c3.3-2.2,6.8-4,10.5-5.3c2.7,6.1,6.6,11.6,11.5,16.3
	C-440.2,71.8-447.9,67.8-453.6,61.9z M-428.1,72.3c-5.4-4.7-9.5-10.3-12.4-16.6c4-1.2,8.1-1.8,12.4-2V72.3z M-428.1,51
	c-4.6,0.1-9.1,0.8-13.5,2.2c-2-5.1-3.1-10.5-3.2-16.2h16.7L-428.1,51L-428.1,51z M-428.1,34.2h-16.7c0.2-6.1,1.4-11.9,3.7-17.4
	c4.2,1.2,8.5,1.9,13,2V34.2z M-428.1,16c-4-0.1-8-0.7-11.8-1.8c2.8-5.8,6.8-11,11.8-15.4V16z M-389.1,34.2h-16.7
	c-0.2-6.4-1.5-12.5-3.8-18.3c3.9-1.4,7.5-3.2,11-5.4C-393,16.9-389.4,25.1-389.1,34.2z M-400.6,8.5c-3.2,2-6.6,3.7-10.2,4.9
	c-2.7-5.6-6.4-10.7-11-15.1C-413.6-0.7-406.3,3-400.6,8.5z M-425.3-1.2c5,4.4,9,9.6,11.8,15.4c-3.8,1.1-7.8,1.7-11.8,1.8V-1.2z
	 M-425.3,18.8c4.4-0.1,8.8-0.8,13-2c2.3,5.4,3.5,11.3,3.7,17.4h-16.7V18.8z M-425.3,37h16.7c-0.2,5.6-1.3,11-3.2,16.1
	c-4.3-1.3-8.9-2-13.5-2.2L-425.3,37L-425.3,37z M-425.3,72.3V53.8c4.2,0.1,8.4,0.8,12.4,2C-415.8,62-420,67.7-425.3,72.3z"/>
<g class="st1">
	<path class="st6" d="M-604.6-2.3h-76c-3.5,0-6.3,2.9-6.3,6.5v52.2c0,3.6,2.8,6.5,6.3,6.5h22.9v5.2h-11.4c-2.8,0-5.1,2.3-5.1,5.2
		v1.3c0,0.7,0.6,1.3,1.3,1.3h60.7c0.7,0,1.3-0.6,1.3-1.3v-1.3c0-2.9-2.3-5.2-5.1-5.2h-11.4V63h4.4c-0.2-0.9-0.3-1.8,0-2.6
		c0,0,0,0,0,0h-57.5c-2.1,0-3.8-1.8-3.8-3.9v-2.6h83.6v2.6c0,2.1-1.6,3.8-3.6,3.9c0.1,0.9-0.1,1.8-0.4,2.6h0.2
		c3.5,0,6.3-2.9,6.3-6.5V4.2C-598.3,0.6-601.1-2.3-604.6-2.3z M-616.1,70.8c1.4,0,2.5,1.2,2.5,2.6h-58.2c0-1.4,1.1-2.6,2.5-2.6
		H-616.1z M-655.2,63h25.2v5.2h-25.2V63z M-600.8,51.2h-83.6v-47c0-2.2,1.7-3.9,3.8-3.9h76c2.1,0,3.8,1.8,3.8,3.9V51.2z"/>
	<path class="st6" d="M-631.9,17.5c-3.4-0.3-6.8-1.4-9.8-3.1c-0.6-0.4-1.3-0.4-1.9,0c-3,1.7-6.3,2.8-9.8,3.1
		c-0.9,0.1-1.6,0.9-1.6,1.8v3.8c0,4.3,1.2,8.5,3.5,12.1c2,3.1,4.7,5.6,7.9,7.3c0.3,0.1,0.5,0.2,0.8,0.2c0.3,0,0.6-0.1,0.8-0.2
		c7.1-3.9,11.5-11.3,11.4-19.4v-3.8C-630.3,18.4-631,17.6-631.9,17.5z M-632.4,23c0.1,7.3-3.9,14-10.2,17.5c-2.8-1.6-5.3-3.8-7-6.5
		l0,0c-2.1-3.3-3.2-7.1-3.2-11v-3.6c3.6-0.4,7.1-1.5,10.2-3.3c3.2,1.8,6.6,2.9,10.2,3.3V23z"/>
</g>
<g class="st1">
	<g id="Page-1_5_" class="st2">
		<g id="_x30_06---Hacker" transform="translate(-1)">
			<path class="st3" d="M-150.9,61.5c-1.5,2.6-3.1,5.5-5.7,7.1c0,0,0,0,0,0c-1.5,1.8-3.6,3.6-6.2,4.6c0-0.2,0.1-0.4,0.1-0.6
				c0-1.2-0.5-2.3-1.5-3.1c0.3-0.3,0.5-0.6,0.7-1c-0.8-0.4-1.6-0.9-2.2-1.6c-0.4,0.9-1.4,1.5-2.4,1.5h-35.4c-1.5,0-2.7-1.2-2.7-2.7
				V44.1c0-1.5,1.2-2.7,2.7-2.7h35.4c1.5,0,2.7,1.2,2.7,2.7v13.3c0.9-0.3,1.8-0.4,2.7-0.3v-13c0-3-2.4-5.4-5.4-5.4h-35.4
				c-3,0-5.4,2.4-5.4,5.4v21.8c0,1.4,0.5,2.7,1.5,3.7c-0.9,0.8-1.5,1.9-1.5,3.1c0,0.2,0,0.4,0.1,0.6c-4.4-1.7-7.4-5.8-8.6-7.9
				c-0.9-1.5-1.2-3.2-0.8-4.8l4.4-20.3c0.3-1.5,1.1-2.8,2.3-3.8c2.8-2.1,5.8-3.8,9-5.1c3.1,2.2,8.3,4.1,16.7,4.7h0.2
				c8.4-0.6,13.5-2.5,16.7-4.7c3.2,1.3,6.3,3,9.1,5.1c1.2,1,2,2.3,2.3,3.8l3,13.8c0.8,0,1.5,0.2,2.2,0.6c0.3,0.2,0.6,0.4,0.9,0.7
				l-3.4-15.7c-0.4-2.1-1.6-4-3.3-5.4c-2.6-2-5.4-3.6-8.4-5c1.6-1.5,2.5-3.5,2.7-5.6c0-15.6-14.6-25.3-19.1-27.9c-1.7-1-3.7-1-5.4,0
				c-4.5,2.6-19.1,12.3-19.1,27.9c0.2,2.1,1.1,4.1,2.7,5.6c-3,1.3-5.8,3-8.4,5c-1.7,1.3-2.9,3.3-3.3,5.4l-4.4,20.3
				c-0.5,2.3-0.1,4.8,1.2,6.8c1.8,3,6.9,9.9,15,9.9h38.1c8,0,13.1-7,15-9.9c1.1-1.8,1.5-3.8,1.3-5.9
				C-150.7,61.2-150.8,61.4-150.9,61.5z M-187.3-1.8c0.8-0.5,1.8-0.5,2.6,0c3.7,2.1,14.6,9.3,17.2,20.6c-2.9-2.3-8.3-4.6-18.5-4.6
				s-15.6,2.3-18.5,4.6C-201.9,7.5-190.9,0.3-187.3-1.8z M-177,17.7l-0.4,2.8c-0.2,1.6-1.1,3.1-2.3,4.1l-2.3,1.8
				c-2.4,1.8-5.6,1.8-8,0l-2.3-1.8c-1.3-1-2.1-2.5-2.3-4.1l-0.4-2.8c3-0.6,6-0.8,9-0.8C-182.9,16.9-179.9,17.1-177,17.7z
				 M-197.6,18.4l0.4,2.5c0.3,2.3,1.5,4.4,3.3,5.8l2.3,1.8c3.3,2.7,8.1,2.7,11.4,0l2.3-1.8c1.8-1.5,3-3.5,3.3-5.8l0.4-2.5
				c5.9,1.8,7.2,4.8,7.4,5.5c-0.1,1.1-1.8,8.2-19,9.4c-17.4-1.2-18.9-8.4-19-9.4C-204.8,23.2-203.6,20.2-197.6,18.4z M-166.9,74.1
				H-205c-0.8,0-1.4-0.6-1.4-1.4s0.6-1.4,1.4-1.4h38.1c0.8,0,1.4,0.6,1.4,1.4C-165.6,73.5-166.2,74.1-166.9,74.1z"/>
		</g>
	</g>
</g>
<path class="st4" d="M59.4,48.3c-6.8,0-12.4,5.5-12.4,12.4S52.6,73,59.4,73s12.4-5.5,12.4-12.4S66.3,48.3,59.4,48.3z M65.4,57.8
	l-7,7c-0.2,0.2-0.5,0.3-0.7,0.3S57.2,65,57,64.8l-3.5-3.5c-0.4-0.4-0.4-1,0-1.4s1-0.4,1.4,0l2.8,2.8l6.3-6.3c0.4-0.4,1-0.4,1.4,0
	C65.8,56.8,65.8,57.4,65.4,57.8z"/>
<path class="st5" d="M-159.7,48.3c-6.8,0-12.4,5.5-12.4,12.4s5.5,12.4,12.4,12.4s12.4-5.5,12.4-12.4S-152.9,48.3-159.7,48.3z
	 M-153.8,57.8l-7,7c-0.2,0.2-0.4,0.3-0.7,0.3s-0.5-0.1-0.7-0.3l-3.5-3.5c-0.4-0.4-0.4-1,0-1.4s1-0.4,1.4,0l2.8,2.8l6.3-6.3
	c0.4-0.4,1-0.4,1.4,0C-153.4,56.8-153.4,57.4-153.8,57.8z"/>
<path class="st5" d="M-398.4,48.3c-6.8,0-12.4,5.5-12.4,12.4s5.5,12.4,12.4,12.4s12.4-5.5,12.4-12.4S-391.6,48.3-398.4,48.3z
	 M-392.5,57.8l-7,7c-0.2,0.2-0.5,0.3-0.7,0.3s-0.5-0.1-0.7-0.3l-3.5-3.5c-0.4-0.4-0.4-1,0-1.4s1-0.4,1.4,0l2.8,2.8l6.3-6.3
	c0.4-0.4,1-0.4,1.4,0C-392.1,56.8-392.1,57.4-392.5,57.8z"/>
<path class="st5" d="M-614.4,48.3c-6.8,0-12.4,5.5-12.4,12.4s5.5,12.4,12.4,12.4s12.4-5.5,12.4-12.4S-607.5,48.3-614.4,48.3z
	 M-608.4,57.9l-7,7c-0.2,0.2-0.5,0.3-0.7,0.3s-0.5-0.1-0.7-0.3l-3.5-3.5c-0.4-0.4-0.4-1,0-1.4s1-0.4,1.4,0l2.8,2.8l6.3-6.3
	c0.4-0.4,1-0.4,1.4,0C-608,56.9-608,57.5-608.4,57.9z"/>
<path class="st5" d="M278.6,48.3c-6.8,0-12.4,5.5-12.4,12.4S271.8,73,278.6,73S291,67.4,291,60.6S285.5,48.3,278.6,48.3z
	 M284.6,57.8l-7,7c-0.2,0.2-0.5,0.3-0.7,0.3s-0.5-0.1-0.7-0.3l-3.5-3.5c-0.4-0.4-0.4-1,0-1.4s1-0.4,1.4,0l2.8,2.8l6.3-6.3
	c0.4-0.4,1-0.4,1.4,0C285,56.8,285,57.4,284.6,57.8z"/>
</svg>
