<?xml version="1.0" encoding="utf-8"?>
<!-- Generator: Adobe Illustrator 24.0.0, SVG Export Plug-In . SVG Version: 6.00 Build 0)  -->
<svg version="1.1" id="Layer_1" xmlns="http://www.w3.org/2000/svg" xmlns:xlink="http://www.w3.org/1999/xlink" x="0px" y="0px"
	 viewBox="0 0 88.7 78.3" style="enable-background:new 0 0 88.7 78.3;" xml:space="preserve">
<style type="text/css">
	.st0{display:none;fill:#0C1B30;}
	.st1{display:none;}
	.st2{display:inline;}
	.st3{fill:#4FF353;}
	.st4{display:inline;fill:#4FF353;}
	.st5{display:none;fill:#4FF353;}
	.st6{fill:#FFFFFF;}
</style>
<image style="display:none;overflow:visible;enable-background:new    ;" width="958" height="599" xlink:href="66EE55B4.jpeg"  transform="matrix(1.2571 0 0 1.2571 -114.045 -320.1412)">
</image>
<rect x="-72.9" y="-47.4" class="st0" width="1120" height="241.4"/>
<g transform="translate(1 1)" class="st1">
	<g class="st2">
		<g>
			<g>
				<path class="st3" d="M966.7,5.9h-72.3c-4,0-7.2,3.2-7.2,7.2V16v11.6v34.7c0,4.1,3.2,7.2,7.2,7.2h72.3c4,0,7.2-3.2,7.2-7.2V27.6
					V16v-2.9C973.9,9.1,970.7,5.9,966.7,5.9z M894.3,8.8h72.3c2.5,0,4.3,1.9,4.3,4.3v1.4h-81v-1.4C890,10.7,891.9,8.8,894.3,8.8z
					 M971,26.1h-81v-8.7h81V26.1L971,26.1z M966.7,66.7h-72.3c-2.5,0-4.3-1.9-4.3-4.3V29h81v33.3C971,64.8,969.1,66.7,966.7,66.7z"
					/>
				<path class="st3" d="M895.8,39.2h13c0.7,0,1.5-0.6,1.5-1.5s-0.6-1.5-1.5-1.5h-13c-0.9,0-1.5,0.6-1.5,1.5
					C894.3,38.6,894.9,39.2,895.8,39.2z"/>
				<path class="st3" d="M927.6,36.3h-13c-0.9,0-1.5,0.6-1.5,1.5s0.6,1.5,1.5,1.5h13c0.9,0,1.5-0.6,1.5-1.5
					C929,36.8,928.5,36.3,927.6,36.3z"/>
				<path class="st3" d="M917.5,42h-21.7c-0.9,0-1.5,0.6-1.5,1.5s0.6,1.5,1.5,1.5h21.7c0.9,0,1.5-0.6,1.5-1.5S918.3,42,917.5,42z"/>
				<path class="st3" d="M927.6,42h-4.3c-0.9,0-1.5,0.6-1.5,1.5s0.6,1.5,1.5,1.5h4.3c0.9,0,1.5-0.6,1.5-1.5S928.5,42,927.6,42z"/>
			</g>
		</g>
	</g>
</g>
<g class="st1">
	<path class="st4" d="M747.1,66.7c-0.7,0.8-1.7,1.2-2.8,1.4c-0.6,1.7-2.2,3-4.1,3h-49.1c-2.4,0-4.3-1.9-4.3-4.3V9.6
		c0-2.4,1.9-4.3,4.3-4.3h49.1c2.4,0,4.3,1.9,4.3,4.3V56c1-0.3,2-0.3,3,0V9.6c0-4-3.3-7.3-7.3-7.3h-49.1c-4,0-7.3,3.3-7.3,7.3v57.1
		c0,4,3.3,7.3,7.3,7.3h49.1c4,0,7.3-3.3,7.3-7.3v-0.6C747.5,66.3,747.3,66.5,747.1,66.7z"/>
</g>
<g class="st1">
	<g class="st2">
		<path class="st3" d="M725.2,34.1v-3.3c0-4.7-4.3-8.6-9.5-8.6s-9.5,3.9-9.5,8.6v3.3c-2,0.3-3.6,2.1-3.6,4.2v11.6
			c0,2.4,1.9,4.3,4.3,4.3h17.5c2.4,0,4.3-1.9,4.3-4.3V38.3C728.8,36.2,727.3,34.4,725.2,34.1z M707.5,30.8c0-4.1,3.7-7.4,8.3-7.4
			s8.3,3.3,8.3,7.4V34h-16.6L707.5,30.8L707.5,30.8z M727.6,49.9c0,1.7-1.4,3.1-3.1,3.1H707c-1.7,0-3.1-1.4-3.1-3.1V38.3
			c0-1.7,1.4-3.1,3.1-3.1h17.5c1.7,0,3.1,1.4,3.1,3.1L727.6,49.9L727.6,49.9z"/>
		<path class="st3" d="M724.5,54.5H707c-2.6,0-4.7-2.1-4.7-4.7V38.3c0-2.2,1.5-4,3.6-4.5v-3c0-5,4.4-9,9.9-9s9.9,4,9.9,9v3
			c2.1,0.5,3.6,2.4,3.6,4.5v11.6C729.2,52.5,727.1,54.5,724.5,54.5z M715.8,22.5c-5,0-9.1,3.7-9.1,8.2v3.6l-0.3,0
			c-1.9,0.3-3.2,1.9-3.2,3.8v11.6c0,2.2,1.8,3.9,3.9,3.9h17.5c2.2,0,3.9-1.8,3.9-3.9V38.3c0-1.9-1.4-3.5-3.2-3.8l-0.3,0v-3.6
			C724.9,26.2,720.8,22.5,715.8,22.5z M724.5,53.4H707c-1.9,0-3.5-1.6-3.5-3.5V38.3c0-1.9,1.6-3.5,3.5-3.5h17.5
			c1.9,0,3.5,1.6,3.5,3.5v11.6C728,51.8,726.4,53.4,724.5,53.4z M707,35.6c-1.5,0-2.7,1.2-2.7,2.7v11.6c0,1.5,1.2,2.7,2.7,2.7h17.5
			c1.5,0,2.7-1.2,2.7-2.7V38.3c0-1.5-1.2-2.7-2.7-2.7C724.5,35.6,707,35.6,707,35.6z M724.4,34.4h-17.3v-3.6c0-4.3,3.9-7.8,8.7-7.8
			s8.7,3.5,8.7,7.8L724.4,34.4L724.4,34.4z M707.8,33.6h15.8v-2.9c0-3.9-3.5-7-7.9-7s-7.9,3.1-7.9,7L707.8,33.6L707.8,33.6z"/>
	</g>
	<g class="st2">
		<path class="st3" d="M715.8,38.8c-1.3,0-2.4,1.1-2.4,2.4v3.6c0,1.3,1.1,2.4,2.4,2.4s2.4-1.1,2.4-2.4v-3.6
			C718.1,39.8,717.1,38.8,715.8,38.8z M716.9,44.7c0,0.7-0.5,1.2-1.2,1.2s-1.2-0.5-1.2-1.2v-3.6c0-0.7,0.5-1.2,1.2-1.2
			s1.2,0.5,1.2,1.2V44.7z"/>
		<path class="st3" d="M715.8,47.4c-1.5,0-2.8-1.2-2.8-2.8v-3.6c0-1.5,1.2-2.8,2.8-2.8s2.8,1.2,2.8,2.8v3.6
			C718.5,46.2,717.3,47.4,715.8,47.4z M715.8,39.1c-1.1,0-2,0.9-2,2v3.6c0,1.1,0.9,2,2,2s2-0.9,2-2v-3.6
			C717.7,40,716.8,39.1,715.8,39.1z M715.8,46.3c-0.9,0-1.6-0.7-1.6-1.6v-3.6c0-0.9,0.7-1.6,1.6-1.6s1.6,0.7,1.6,1.6v3.6
			C717.3,45.5,716.6,46.3,715.8,46.3z M715.8,40.3c-0.5,0-0.8,0.4-0.8,0.8v3.6c0,0.5,0.4,0.8,0.8,0.8s0.8-0.4,0.8-0.8v-3.6
			C716.6,40.7,716.2,40.3,715.8,40.3z"/>
	</g>
</g>
<path class="st5" d="M282.1,68.5c-4.9,3.5-10.7,5.9-17,6.7c4.9-4.7,8.8-10.2,11.5-16.3c2.1,0.8,4.2,1.7,6.2,2.7
	c0.5-0.5,1.1-0.8,1.8-0.9c0.2-0.3,0.4-0.7,0.5-1c-2.4-1.3-4.9-2.5-7.4-3.4c2.1-5.4,3.2-11.1,3.4-17h16.7c-0.2,6.4-2.1,12.4-5.2,17.7
	c0.4,0.2,0.7,0.4,1,0.7c0.4,0.4,0.7,0.8,1,1.3c3.8-6.2,6-13.4,6-21.1c0-10.7-4.2-20.4-11-27.7l0,0c0,0,0,0,0,0
	c-7.1-7.5-17-12.4-28-12.7l0,0l-0.8,0c-0.2,0-0.4,0-0.6,0c-0.2,0-0.4,0-0.6,0l-0.8,0l0,0c-11,0.4-21,5.2-28,12.7c0,0,0,0,0,0l0,0
	c-6.8,7.2-11,17-11,27.7c0,10.3,3.9,19.7,10.2,26.8c0,0,0,0,0,0c0,0,0.1,0.1,0.1,0.1c7.1,8,17.3,13.1,28.7,13.5l0,0l0.8,0
	c0.2,0,0.4,0,0.6,0c0.2,0,0.4,0,0.6,0l0.8,0l0,0c8.6-0.3,16.5-3.3,22.9-8.1C283.5,69.9,282.7,69.3,282.1,68.5z M255.3,0.5
	c-4.6,4.4-8.3,9.5-11,15.1c-3.6-1.2-7-2.9-10.2-4.9C239.8,5.3,247.1,1.6,255.3,0.5z M232.2,12.8c3.5,2.3,7.2,4.1,11,5.4
	c-2.4,5.7-3.7,11.9-3.8,18.3h-16.8C222.9,27.4,226.5,19.1,232.2,12.8z M231.4,62.1c-5.2-6.2-8.5-14.1-8.8-22.8h16.7
	c0.2,5.9,1.3,11.7,3.4,17C238.7,57.7,234.9,59.7,231.4,62.1z M233.3,64.2c3.3-2.2,6.8-4,10.5-5.3c2.7,6.1,6.6,11.6,11.5,16.3
	C246.7,74.1,239.1,70.1,233.3,64.2z M258.8,74.6c-5.4-4.7-9.5-10.3-12.4-16.6c4-1.2,8.1-1.8,12.4-2V74.6z M258.8,53.3
	c-4.6,0.1-9.1,0.8-13.5,2.2c-2-5.1-3.1-10.5-3.2-16.1h16.7L258.8,53.3L258.8,53.3z M258.8,36.5h-16.7c0.2-6.1,1.4-11.9,3.7-17.4
	c4.2,1.2,8.5,1.9,13,2V36.5z M258.8,18.3c-4-0.1-8-0.7-11.8-1.8c2.8-5.8,6.8-11,11.8-15.4V18.3z M297.8,36.5h-16.7
	c-0.2-6.4-1.5-12.5-3.8-18.3c3.9-1.4,7.5-3.2,11-5.4C294,19.1,297.5,27.4,297.8,36.5z M286.3,10.8c-3.2,2-6.6,3.7-10.2,4.9
	c-2.7-5.6-6.4-10.7-11-15.1C273.3,1.6,280.6,5.3,286.3,10.8z M261.6,1.1c5,4.4,9,9.6,11.8,15.4c-3.8,1.1-7.8,1.7-11.8,1.8V1.1z
	 M261.6,21.1c4.4-0.1,8.8-0.8,13-2c2.3,5.5,3.5,11.3,3.7,17.4h-16.7V21.1z M261.6,39.3h16.7c-0.2,5.6-1.3,11-3.2,16.1
	c-4.3-1.3-8.9-2-13.5-2.2L261.6,39.3L261.6,39.3z M261.6,74.6V56c4.2,0.1,8.4,0.8,12.4,2C271.1,64.3,267,69.9,261.6,74.6z"/>
<g class="st1">
	<g id="Page-1_5_" class="st2">
		<g id="_x30_06---Hacker" transform="translate(-1)">
			<path class="st3" d="M536,63.8c-1.5,2.6-3.1,5.5-5.7,7.1c0,0,0,0,0,0c-1.5,1.8-3.6,3.6-6.2,4.6c0-0.2,0-0.4,0.1-0.6
				c0-1.2-0.5-2.3-1.5-3.1c0.3-0.3,0.5-0.6,0.7-1c-0.8-0.4-1.5-0.9-2.2-1.6c-0.4,0.9-1.4,1.5-2.4,1.5h-35.4c-1.5,0-2.7-1.2-2.7-2.7
				V46.4c0-1.5,1.2-2.7,2.7-2.7h35.4c1.5,0,2.7,1.2,2.7,2.7v13.3c0.9-0.3,1.8-0.4,2.7-0.3v-13c0-3-2.4-5.4-5.4-5.4h-35.4
				c-3,0-5.4,2.4-5.4,5.4v21.8c0,1.4,0.5,2.7,1.5,3.7c-0.9,0.8-1.5,1.9-1.5,3.1c0,0.2,0,0.4,0.1,0.6c-4.4-1.7-7.4-5.8-8.6-7.9
				c-0.9-1.4-1.2-3.2-0.8-4.8l4.4-20.3c0.3-1.5,1.1-2.8,2.3-3.8c2.8-2.1,5.8-3.8,9-5.1c3.1,2.2,8.3,4.1,16.7,4.7h0.2
				c8.4-0.6,13.5-2.5,16.7-4.7c3.2,1.3,6.3,3,9,5.1c1.2,1,2,2.3,2.3,3.8l3,13.8c0.8,0,1.5,0.2,2.2,0.6c0.3,0.2,0.6,0.4,0.9,0.7
				L531.8,42c-0.4-2.1-1.6-4-3.3-5.4c-2.6-2-5.4-3.6-8.4-5c1.5-1.5,2.5-3.5,2.7-5.6c0-15.6-14.6-25.3-19.1-27.9c-1.7-1-3.7-1-5.4,0
				c-4.5,2.6-19.1,12.3-19.1,27.9c0.2,2.1,1.1,4.1,2.7,5.6c-3,1.3-5.8,3-8.4,5c-1.7,1.3-2.9,3.3-3.3,5.4l-4.4,20.3
				c-0.5,2.3-0.1,4.8,1.2,6.8c1.8,3,6.9,9.9,15,9.9H520c8,0,13.1-7,15-9.9c1.1-1.8,1.5-3.8,1.3-5.9C536.2,63.5,536.2,63.7,536,63.8z
				 M499.6,0.5c0.8-0.5,1.8-0.5,2.6,0c3.7,2.1,14.6,9.3,17.2,20.6c-2.9-2.3-8.3-4.6-18.5-4.6s-15.6,2.3-18.5,4.6
				C485.1,9.8,496,2.6,499.6,0.5z M510,20l-0.4,2.8c-0.2,1.6-1.1,3.1-2.3,4.1l-2.3,1.8c-2.4,1.8-5.6,1.8-8,0l-2.3-1.8
				c-1.3-1-2.1-2.5-2.3-4.1L492,20c3-0.6,6-0.8,9-0.8C504,19.2,507,19.4,510,20z M489.3,20.7l0.4,2.5c0.3,2.3,1.5,4.4,3.3,5.8
				l2.3,1.8c3.3,2.7,8.1,2.7,11.4,0L509,29c1.8-1.5,3-3.5,3.3-5.8l0.3-2.5c5.9,1.8,7.2,4.8,7.4,5.4c-0.2,1.1-1.8,8.2-19,9.4
				c-17.4-1.2-18.9-8.4-19-9.4C482.1,25.5,483.4,22.5,489.3,20.7z M520,76.4h-38.1c-0.8,0-1.4-0.6-1.4-1.4s0.6-1.4,1.4-1.4H520
				c0.8,0,1.4,0.6,1.4,1.4S520.8,76.4,520,76.4z"/>
		</g>
	</g>
</g>
<path class="st5" d="M743.3,50.5c-6.8,0-12.4,5.5-12.4,12.4s5.5,12.4,12.4,12.4s12.4-5.5,12.4-12.4S750.1,50.5,743.3,50.5z
	 M749.3,60.1l-7,7c-0.2,0.2-0.5,0.3-0.7,0.3s-0.5-0.1-0.7-0.3l-3.5-3.5c-0.4-0.4-0.4-1,0-1.4s1-0.4,1.4,0l2.8,2.8l6.3-6.3
	c0.4-0.4,1-0.4,1.4,0C749.7,59.1,749.7,59.7,749.3,60.1z"/>
<path class="st5" d="M527.2,50.5c-6.8,0-12.4,5.5-12.4,12.4s5.5,12.4,12.4,12.4s12.4-5.5,12.4-12.4S534,50.5,527.2,50.5z
	 M533.2,60.1l-7,7c-0.2,0.2-0.5,0.3-0.7,0.3s-0.5-0.1-0.7-0.3l-3.5-3.5c-0.4-0.4-0.4-1,0-1.4s1-0.4,1.4,0l2.8,2.8l6.3-6.3
	c0.4-0.4,1-0.4,1.4,0C533.6,59.1,533.6,59.7,533.2,60.1z"/>
<path class="st5" d="M288.5,50.5c-6.8,0-12.4,5.5-12.4,12.4s5.5,12.4,12.4,12.4s12.4-5.5,12.4-12.4S295.3,50.5,288.5,50.5z
	 M294.5,60.1l-7,7c-0.2,0.2-0.5,0.3-0.7,0.3s-0.5-0.1-0.7-0.3l-3.5-3.5c-0.4-0.4-0.4-1,0-1.4s1-0.4,1.4,0l2.8,2.8l6.3-6.3
	c0.4-0.4,1-0.4,1.4,0C294.9,59.1,294.9,59.7,294.5,60.1z"/>
<g>
	<g>
		<path class="st6" d="M82.3,0h-76C2.8,0,0,2.9,0,6.5v52.2c0,3.6,2.8,6.5,6.3,6.5h22.9v5.2H17.8c-2.8,0-5.1,2.3-5.1,5.2V77
			c0,0.7,0.6,1.3,1.3,1.3h60.7c0.7,0,1.3-0.6,1.3-1.3v-1.3c0-2.9-2.3-5.2-5.1-5.2H59.4v-5.2h4.4c-0.2-0.9-0.3-1.8,0-2.6c0,0,0,0,0,0
			H6.3c-2.1,0-3.8-1.8-3.8-3.9v-2.6h83.6v2.6c0,2.1-1.6,3.8-3.6,3.9c0.1,0.9-0.1,1.8-0.4,2.6h0.2c3.5,0,6.3-2.9,6.3-6.5V6.5
			C88.7,2.9,85.8,0,82.3,0z M70.9,73.1c1.4,0,2.5,1.2,2.5,2.6H15.2c0-1.4,1.1-2.6,2.5-2.6H70.9z M31.8,65.2h25.2v5.2H31.8V65.2z
			 M86.1,53.5H2.5v-47c0-2.2,1.7-3.9,3.8-3.9h76c2.1,0,3.8,1.7,3.8,3.9V53.5z"/>
		<path class="st6" d="M55,19.8c-3.4-0.3-6.8-1.4-9.8-3.1c-0.6-0.4-1.3-0.4-1.9,0c-3,1.7-6.3,2.8-9.8,3.1c-0.9,0.1-1.6,0.9-1.6,1.8
			v3.8c0,4.3,1.2,8.5,3.5,12.1c2,3.1,4.7,5.6,7.9,7.3c0.3,0.1,0.5,0.2,0.8,0.2c0.3,0,0.6-0.1,0.8-0.2c7.1-3.9,11.5-11.3,11.4-19.4
			v-3.8C56.6,20.6,55.9,19.9,55,19.8z M54.5,25.3c0.1,7.3-3.9,14-10.2,17.5c-2.8-1.6-5.3-3.8-7-6.5l0,0c-2.1-3.3-3.2-7.1-3.2-11
			v-3.6c3.6-0.4,7.1-1.5,10.2-3.3c3.2,1.8,6.6,2.9,10.2,3.3V25.3z"/>
	</g>
	<path class="st6" d="M72.6,50.6c-6.8,0-12.4,5.5-12.4,12.4s5.5,12.4,12.4,12.4S84.9,69.8,84.9,63S79.4,50.6,72.6,50.6z M78.5,60.2
		l-7,7c-0.2,0.2-0.4,0.3-0.7,0.3s-0.5-0.1-0.7-0.3l-3.5-3.5c-0.4-0.4-0.4-1,0-1.4s1-0.4,1.4,0l2.8,2.8l6.3-6.3c0.4-0.4,1-0.4,1.4,0
		C78.9,59.2,78.9,59.8,78.5,60.2z"/>
</g>
<path class="st5" d="M965.6,50.5c-6.8,0-12.4,5.5-12.4,12.4s5.5,12.4,12.4,12.4s12.4-5.5,12.4-12.4S972.4,50.5,965.6,50.5z
	 M971.5,60.1l-7,7c-0.2,0.2-0.5,0.3-0.7,0.3s-0.5-0.1-0.7-0.3l-3.5-3.5c-0.4-0.4-0.4-1,0-1.4s1-0.4,1.4,0l2.8,2.8l6.3-6.3
	c0.4-0.4,1-0.4,1.4,0C971.9,59.1,971.9,59.7,971.5,60.1z"/>
</svg>
