<?xml version="1.0" encoding="utf-8"?>
<!-- Generator: Adobe Illustrator 24.0.0, SVG Export Plug-In . SVG Version: 6.00 Build 0)  -->
<svg version="1.1" id="Layer_1" xmlns="http://www.w3.org/2000/svg" xmlns:xlink="http://www.w3.org/1999/xlink" x="0px" y="0px"
	 viewBox="0 0 512 512" style="enable-background:new 0 0 512 512;" xml:space="preserve">
<style type="text/css">
	.st0{fill:#4FF353;}
</style>
<g>
	<g>
		<path class="st0" d="M256,0C114.8,0,0,114.8,0,256s114.8,256,256,256s256-114.8,256-256S397.2,0,256,0z M256,480
			C132.5,480,32,379.5,32,256S132.5,32,256,32s224,100.5,224,224S379.5,480,256,480z"/>
	</g>
</g>
<g>
	<g>
		<path class="st0" d="M372.7,164.7L208,329.4l-68.7-68.7l-22.6,22.6l80,80c3.1,3.1,7.2,4.7,11.3,4.7s8.2-1.6,11.3-4.7l176-176
			L372.7,164.7z"/>
	</g>
</g>
</svg>
