<?xml version="1.0" encoding="utf-8"?>
<!-- Generator: Adobe Illustrator 24.0.0, SVG Export Plug-In . SVG Version: 6.00 Build 0)  -->
<svg version="1.1" id="Capa_1" xmlns="http://www.w3.org/2000/svg" xmlns:xlink="http://www.w3.org/1999/xlink" x="0px" y="0px"
	 viewBox="0 0 307.2 306.8" style="enable-background:new 0 0 307.2 306.8;" xml:space="preserve">
<style type="text/css">
	.st0{fill-rule:evenodd;clip-rule:evenodd;fill:#FFFFFF;}
</style>
<g>
	<g id="Page-1_13_">
		<g id="_x30_14---Update-Computer" transform="translate(-1)">
			<g>
				<path id="Path_19_" class="st0" d="M291.1,153.4c0.1,53.6-31.3,102.3-80.2,124.4s-106.2,13.5-146.4-22h13.3
					c4.7,0,8.5-3.8,8.5-8.5c0-4.7-3.8-8.5-8.5-8.5H43.7c-4.7,0-8.5,3.8-8.5,8.5v34.1c0,4.7,3.8,8.5,8.5,8.5s8.5-3.8,8.5-8.5v-13.8
					c54,48.4,134.6,52.4,193.2,9.5s79.1-120.9,49.3-187c-1.9-4.3-7-6.2-11.3-4.3c-4.3,1.9-6.2,7-4.3,11.3
					C287.1,114.9,291.2,134,291.1,153.4L291.1,153.4z"/>
				<path id="Path_18_" class="st0" d="M22.3,221.7c2.9,0,5.6-1.5,7.2-3.9s1.8-5.5,0.6-8.1C3.5,151,21.5,81.8,73.3,43.6
					S196.5,8.4,244.7,51h-13.3c-4.7,0-8.5,3.8-8.5,8.5c0,4.7,3.8,8.5,8.5,8.5h34.1c4.7,0,8.5-3.8,8.5-8.5V25.4
					c0-4.7-3.8-8.5-8.5-8.5s-8.5,3.8-8.5,8.5v13.8C203-9.2,122.4-13.2,63.8,29.7s-79.1,120.9-49.3,187C16,219.7,19,221.7,22.3,221.7
					L22.3,221.7z"/>
			</g>
		</g>
	</g>
</g>
</svg>
